<?xml version="1.0" encoding="UTF-8"?>
<svg id="Layer_1" xmlns="http://www.w3.org/2000/svg" version="1.1" viewBox="0 0 339.7 216.9">
  <!-- Generator: Adobe Illustrator 29.6.1, SVG Export Plug-In . SVG Version: 2.1.1 Build 9)  -->
  <defs>
    <style>
      .st0 {
        fill: #00181e;
      }

      .st1 {
        fill: #fff;
      }

      .st2 {
        fill: #003438;
      }

      .st3 {
        fill: #078650;
      }

      .st4 {
        fill: #008750;
      }
    </style>
  </defs>
  <path class="st0" d="M69.8,107.8v6h6v-6h-6Z"/>
  <path class="st4" d="M75.8,107.8v6h6v-6h-6Z"/>
  <path class="st4" d="M69.8,101.7v6h6v-6h-6Z"/>
  <path class="st0" d="M63.7,101.7v6h6v-6h-6Z"/>
  <path class="st4" d="M63.8,95.7v6h6v-6h-6Z"/>
  <path class="st4" d="M63.7,107.8v6h6v-6h-6Z"/>
  <path class="st0" d="M57.7,95.7v6h6v-6h-6Z"/>
  <path class="st0" d="M57.7,107.8v6h6v-6h-6Z"/>
  <path class="st4" d="M57.7,89.7v6h6v-6h-6Z"/>
  <path class="st4" d="M57.7,101.7v6h6v-6h-6Z"/>
  <path class="st0" d="M63.8,71.5h-6v6h6v-6Z"/>
  <path class="st4" d="M63.8,77.6h-6v6h6v-6Z"/>
  <path class="st4" d="M69.8,71.5h-6v6h6v-6Z"/>
  <path class="st0" d="M69.8,65.5h-6v6h6v-6Z"/>
  <path class="st4" d="M75.8,65.5h-6v6h6v-6Z"/>
  <path class="st4" d="M63.8,65.5h-6v6h6v-6Z"/>
  <path class="st0" d="M75.8,59.5h-6v6h6v-6Z"/>
  <path class="st0" d="M63.8,59.5h-6v6h6v-6Z"/>
  <path class="st4" d="M81.9,59.5h-6v6h6v-6Z"/>
  <path class="st4" d="M69.8,59.5h-6v6h6v-6Z"/>
  <path class="st2" d="M166.4,59.5h-6v6h6v-6Z"/>
  <path class="st2" d="M160.4,65.5h-6v6h6v-6Z"/>
  <path class="st2" d="M154.3,71.5h-6v6h6v-6Z"/>
  <path class="st2" d="M148.3,77.6h-6v6h6v-6Z"/>
  <path class="st2" d="M142.3,83.6h-6v6h6v-6Z"/>
  <path class="st2" d="M148.3,89.7h-6v6h6v-6Z"/>
  <path class="st2" d="M154.3,95.7h-6v6h6v-6Z"/>
  <path class="st2" d="M160.4,101.7h-6v6h6v-6Z"/>
  <path class="st2" d="M166.4,107.8h-6v6h6v-6Z"/>
  <path class="st0" d="M160.4,59.5h-6v6h6v-6Z"/>
  <path class="st0" d="M154.3,65.5h-6v6h6v-6Z"/>
  <path class="st0" d="M148.3,71.5h-6v6h6v-6Z"/>
  <path class="st0" d="M142.3,77.6h-6v6h6v-6Z"/>
  <path class="st0" d="M136.2,83.6h-6v6h6v-6Z"/>
  <path class="st0" d="M142.3,89.7h-6v6h6v-6Z"/>
  <path class="st0" d="M148.3,95.7h-6v6h6v-6Z"/>
  <path class="st0" d="M154.3,101.7h-6v6h6v-6Z"/>
  <path class="st0" d="M160.4,107.8h-6v6h6v-6Z"/>
  <path class="st2" d="M154.3,59.5h-6v6h6v-6Z"/>
  <path class="st2" d="M148.3,65.5h-6v6h6v-6Z"/>
  <path class="st2" d="M142.3,71.5h-6v6h6v-6Z"/>
  <path class="st2" d="M136.2,77.6h-6v6h6v-6Z"/>
  <path class="st2" d="M130.2,83.6h-6v6h6v-6Z"/>
  <path class="st2" d="M136.2,89.7h-6v6h6v-6Z"/>
  <path class="st2" d="M142.3,95.7h-6v6h6v-6Z"/>
  <path class="st2" d="M148.3,101.7h-6v6h6v-6Z"/>
  <path class="st2" d="M154.3,107.8h-6v6h6v-6Z"/>
  <path class="st0" d="M148.3,59.5h-6v6h6v-6Z"/>
  <path class="st0" d="M142.3,65.5h-6v6h6v-6Z"/>
  <path class="st0" d="M136.2,71.5h-6v6h6v-6Z"/>
  <path class="st0" d="M130.2,77.6h-6v6h6v-6Z"/>
  <path class="st0" d="M124.1,83.6h-6v6h6v-6Z"/>
  <path class="st0" d="M130.2,89.7h-6v6h6v-6Z"/>
  <path class="st0" d="M136.2,95.7h-6v6h6v-6Z"/>
  <path class="st0" d="M142.3,101.7h-6v6h6v-6Z"/>
  <path class="st0" d="M148.3,107.8h-6v6h6v-6Z"/>
  <path class="st2" d="M142.3,59.5h-6v6h6v-6Z"/>
  <path class="st2" d="M136.2,65.5h-6v6h6v-6Z"/>
  <path class="st2" d="M130.2,71.5h-6v6h6v-6Z"/>
  <path class="st2" d="M124.1,77.6h-6v6h6v-6Z"/>
  <path class="st2" d="M118.1,83.6h-6v6h6v-6Z"/>
  <path class="st2" d="M124.1,89.7h-6v6h6v-6Z"/>
  <path class="st2" d="M130.2,95.7h-6v6h6v-6Z"/>
  <path class="st2" d="M136.2,101.7h-6v6h6v-6Z"/>
  <path class="st2" d="M142.3,107.8h-6v6h6v-6Z"/>
  <path class="st0" d="M136.2,59.5h-6v6h6v-6Z"/>
  <path class="st0" d="M130.2,65.5h-6v6h6v-6Z"/>
  <path class="st0" d="M124.1,71.5h-6v6h6v-6Z"/>
  <path class="st0" d="M118.1,77.6h-6v6h6v-6Z"/>
  <path class="st0" d="M112.1,83.6h-6v6h6v-6Z"/>
  <path class="st0" d="M118.1,89.7h-6v6h6v-6Z"/>
  <path class="st0" d="M124.1,95.7h-6v6h6v-6Z"/>
  <path class="st0" d="M130.2,101.7h-6v6h6v-6Z"/>
  <path class="st0" d="M136.2,107.8h-6v6h6v-6Z"/>
  <path class="st2" d="M130.2,59.5h-6v6h6v-6Z"/>
  <path class="st2" d="M124.1,65.5h-6v6h6v-6Z"/>
  <path class="st2" d="M118.1,71.5h-6v6h6v-6Z"/>
  <path class="st2" d="M112.1,77.6h-6v6h6v-6Z"/>
  <path class="st2" d="M106,83.6h-6v6h6v-6Z"/>
  <path class="st2" d="M112.1,89.7h-6v6h6v-6Z"/>
  <path class="st2" d="M118.1,95.7h-6v6h6v-6Z"/>
  <path class="st2" d="M124.1,101.7h-6v6h6v-6Z"/>
  <path class="st2" d="M130.2,107.8h-6v6h6v-6Z"/>
  <path class="st0" d="M124.1,59.5h-6v6h6v-6Z"/>
  <path class="st0" d="M118.1,65.5h-6v6h6v-6Z"/>
  <path class="st0" d="M112.1,71.5h-6v6h6v-6Z"/>
  <path class="st0" d="M106,77.6h-6v6h6v-6Z"/>
  <path class="st0" d="M100,83.6h-6v6h6v-6Z"/>
  <path class="st0" d="M106,89.7h-6v6h6v-6Z"/>
  <path class="st0" d="M112.1,95.7h-6v6h6v-6Z"/>
  <path class="st0" d="M118.1,101.7h-6v6h6v-6Z"/>
  <path class="st0" d="M124.1,107.8h-6v6h6v-6Z"/>
  <path class="st2" d="M118.1,59.5h-6v6h6v-6Z"/>
  <path class="st2" d="M112.1,65.5h-6v6h6v-6Z"/>
  <path class="st2" d="M106,71.5h-6v6h6v-6Z"/>
  <path class="st2" d="M100,77.6h-6v6h6v-6Z"/>
  <path class="st2" d="M93.9,83.6h-6v6h6v-6Z"/>
  <path class="st2" d="M100,89.7h-6v6h6v-6Z"/>
  <path class="st2" d="M106,95.7h-6v6h6v-6Z"/>
  <path class="st2" d="M112.1,101.7h-6v6h6v-6Z"/>
  <path class="st2" d="M118.1,107.8h-6v6h6v-6Z"/>
  <path class="st0" d="M112.1,59.5h-6v6h6v-6Z"/>
  <path class="st0" d="M106,65.5h-6v6h6v-6Z"/>
  <path class="st0" d="M100,71.5h-6v6h6v-6Z"/>
  <path class="st0" d="M93.9,77.6h-6v6h6v-6Z"/>
  <path class="st0" d="M87.9,83.6h-6v6h6v-6Z"/>
  <path class="st0" d="M93.9,89.7h-6v6h6v-6Z"/>
  <path class="st0" d="M100,95.7h-6v6h6v-6Z"/>
  <path class="st0" d="M106,101.7h-6v6h6v-6Z"/>
  <path class="st0" d="M112.1,107.8h-6v6h6v-6Z"/>
  <path class="st2" d="M106,59.5h-6v6h6v-6Z"/>
  <path class="st2" d="M100,65.5h-6v6h6v-6Z"/>
  <path class="st2" d="M93.9,71.5h-6v6h6v-6Z"/>
  <path class="st2" d="M87.9,77.6h-6v6h6v-6Z"/>
  <path class="st2" d="M81.9,83.6h-6v6h6v-6Z"/>
  <path class="st2" d="M87.9,89.7h-6v6h6v-6Z"/>
  <path class="st2" d="M93.9,95.7h-6v6h6v-6Z"/>
  <path class="st2" d="M100,101.7h-6v6h6v-6Z"/>
  <path class="st2" d="M106,107.8h-6v6h6v-6Z"/>
  <path class="st0" d="M100,59.5h-6v6h6v-6Z"/>
  <path class="st0" d="M93.9,65.5h-6v6h6v-6Z"/>
  <path class="st0" d="M87.9,71.5h-6v6h6v-6Z"/>
  <path class="st0" d="M81.9,77.6h-6v6h6v-6Z"/>
  <path class="st0" d="M75.8,83.6h-6v6h6v-6Z"/>
  <path class="st0" d="M81.9,89.7h-6v6h6v-6Z"/>
  <path class="st0" d="M87.9,95.7h-6v6h6v-6Z"/>
  <path class="st0" d="M93.9,101.7h-6v6h6v-6Z"/>
  <path class="st0" d="M100,107.8h-6v6h6v-6Z"/>
  <path class="st2" d="M93.9,59.5h-6v6h6v-6Z"/>
  <path class="st2" d="M87.9,65.5h-6v6h6v-6Z"/>
  <path class="st2" d="M81.9,71.5h-6v6h6v-6Z"/>
  <path class="st2" d="M75.8,77.6h-6v6h6v-6Z"/>
  <path class="st2" d="M69.8,83.6h-6v6h6v-6Z"/>
  <path class="st2" d="M75.8,89.7h-6v6h6v-6Z"/>
  <path class="st2" d="M81.9,95.7h-6v6h6v-6Z"/>
  <path class="st2" d="M87.9,101.7h-6v6h6v-6Z"/>
  <path class="st2" d="M93.9,107.8h-6v6h6v-6Z"/>
  <path class="st0" d="M87.9,59.5h-6v6h6v-6Z"/>
  <path class="st0" d="M81.9,65.5h-6v6h6v-6Z"/>
  <path class="st0" d="M75.8,71.5h-6v6h6v-6Z"/>
  <path class="st0" d="M69.8,77.6h-6v6h6v-6Z"/>
  <path class="st0" d="M63.8,83.6h-6v6h6v-6Z"/>
  <path class="st0" d="M69.8,89.7h-6v6h6v-6Z"/>
  <path class="st0" d="M75.8,95.7h-6v6h6v-6Z"/>
  <path class="st0" d="M81.9,101.7h-6v6h6v-6Z"/>
  <path class="st0" d="M87.9,107.8h-6v6h6v-6Z"/>
  <path class="st2" d="M172.4,113.8h6v-6h-6v6Z"/>
  <path class="st2" d="M178.5,107.8h6v-6h-6v6Z"/>
  <path class="st2" d="M184.5,101.7h6v-6h-6v6Z"/>
  <path class="st2" d="M190.6,95.7h6v-6h-6v6Z"/>
  <path class="st2" d="M196.6,89.7h6v-6h-6v6Z"/>
  <path class="st2" d="M190.6,83.6h6v-6h-6v6Z"/>
  <path class="st2" d="M184.5,77.6h6v-6h-6v6Z"/>
  <path class="st2" d="M178.5,71.5h6v-6h-6v6Z"/>
  <path class="st2" d="M172.4,65.5h6v-6h-6v6Z"/>
  <path class="st0" d="M178.5,113.8h6v-6h-6v6Z"/>
  <path class="st0" d="M184.5,107.8h6v-6h-6v6Z"/>
  <path class="st0" d="M190.6,101.7h6v-6h-6v6Z"/>
  <path class="st0" d="M196.6,95.7h6v-6h-6v6Z"/>
  <path class="st0" d="M202.6,89.7h6v-6h-6v6Z"/>
  <path class="st0" d="M196.6,83.6h6v-6h-6v6Z"/>
  <path class="st0" d="M190.6,77.6h6v-6h-6v6Z"/>
  <path class="st0" d="M184.5,71.5h6v-6h-6v6Z"/>
  <path class="st0" d="M178.5,65.5h6v-6h-6v6Z"/>
  <path class="st2" d="M184.5,113.8h6v-6h-6v6Z"/>
  <path class="st2" d="M190.6,107.8h6v-6h-6v6Z"/>
  <path class="st2" d="M196.6,101.7h6v-6h-6v6Z"/>
  <path class="st2" d="M202.6,95.7h6v-6h-6v6Z"/>
  <path class="st2" d="M208.7,89.7h6v-6h-6v6Z"/>
  <path class="st2" d="M202.6,83.6h6v-6h-6v6Z"/>
  <path class="st2" d="M196.6,77.6h6v-6h-6v6Z"/>
  <path class="st2" d="M190.6,71.5h6v-6h-6v6Z"/>
  <path class="st2" d="M184.5,65.5h6v-6h-6v6Z"/>
  <path class="st0" d="M190.6,113.8h6v-6h-6v6Z"/>
  <path class="st0" d="M196.6,107.8h6v-6h-6v6Z"/>
  <path class="st0" d="M202.6,101.7h6v-6h-6v6Z"/>
  <path class="st0" d="M208.7,95.7h6v-6h-6v6Z"/>
  <path class="st0" d="M214.7,89.7h6v-6h-6v6Z"/>
  <path class="st0" d="M208.7,83.6h6v-6h-6v6Z"/>
  <path class="st0" d="M202.6,77.6h6v-6h-6v6Z"/>
  <path class="st0" d="M196.6,71.5h6v-6h-6v6Z"/>
  <path class="st0" d="M190.6,65.5h6v-6h-6v6Z"/>
  <path class="st2" d="M196.6,113.8h6v-6h-6v6Z"/>
  <path class="st2" d="M202.6,107.8h6v-6h-6v6Z"/>
  <path class="st2" d="M208.7,101.7h6v-6h-6v6Z"/>
  <path class="st2" d="M214.7,95.7h6v-6h-6v6Z"/>
  <path class="st2" d="M220.8,89.7h6v-6h-6v6Z"/>
  <path class="st2" d="M214.7,83.6h6v-6h-6v6Z"/>
  <path class="st2" d="M208.7,77.6h6v-6h-6v6Z"/>
  <path class="st2" d="M202.6,71.5h6v-6h-6v6Z"/>
  <path class="st2" d="M196.6,65.5h6v-6h-6v6Z"/>
  <path class="st0" d="M202.6,113.8h6v-6h-6v6Z"/>
  <path class="st0" d="M208.7,107.8h6v-6h-6v6Z"/>
  <path class="st0" d="M214.7,101.7h6v-6h-6v6Z"/>
  <path class="st0" d="M220.8,95.7h6v-6h-6v6Z"/>
  <path class="st0" d="M226.8,89.7h6v-6h-6v6Z"/>
  <path class="st0" d="M220.8,83.6h6v-6h-6v6Z"/>
  <path class="st0" d="M214.7,77.6h6v-6h-6v6Z"/>
  <path class="st0" d="M208.7,71.5h6v-6h-6v6Z"/>
  <path class="st0" d="M202.6,65.5h6v-6h-6v6Z"/>
  <path class="st2" d="M208.7,113.8h6v-6h-6v6Z"/>
  <path class="st2" d="M214.7,107.8h6v-6h-6v6Z"/>
  <path class="st2" d="M220.8,101.7h6v-6h-6v6Z"/>
  <path class="st2" d="M226.8,95.7h6v-6h-6v6Z"/>
  <path class="st2" d="M232.8,89.7h6v-6h-6v6Z"/>
  <path class="st2" d="M226.8,83.6h6v-6h-6v6Z"/>
  <path class="st2" d="M220.8,77.6h6v-6h-6v6Z"/>
  <path class="st2" d="M214.7,71.5h6v-6h-6v6Z"/>
  <path class="st2" d="M208.7,65.5h6v-6h-6v6Z"/>
  <path class="st0" d="M214.7,113.8h6v-6h-6v6Z"/>
  <path class="st0" d="M220.8,107.8h6v-6h-6v6Z"/>
  <path class="st0" d="M226.8,101.7h6v-6h-6v6Z"/>
  <path class="st0" d="M232.8,95.7h6v-6h-6v6Z"/>
  <path class="st0" d="M238.9,89.7h6v-6h-6v6Z"/>
  <path class="st0" d="M232.8,83.6h6v-6h-6v6Z"/>
  <path class="st0" d="M226.8,77.6h6v-6h-6v6Z"/>
  <path class="st0" d="M220.8,71.5h6v-6h-6v6Z"/>
  <path class="st0" d="M214.7,65.5h6v-6h-6v6Z"/>
  <path class="st2" d="M220.8,113.8h6v-6h-6v6Z"/>
  <path class="st2" d="M226.8,107.8h6v-6h-6v6Z"/>
  <path class="st2" d="M232.8,101.7h6v-6h-6v6Z"/>
  <path class="st2" d="M238.9,95.7h6v-6h-6v6Z"/>
  <path class="st2" d="M244.9,89.7h6v-6h-6v6Z"/>
  <path class="st2" d="M238.9,83.6h6v-6h-6v6Z"/>
  <path class="st2" d="M232.8,77.6h6v-6h-6v6Z"/>
  <path class="st2" d="M226.8,71.5h6v-6h-6v6Z"/>
  <path class="st2" d="M220.8,65.5h6v-6h-6v6Z"/>
  <path class="st0" d="M226.8,113.8h6v-6h-6v6Z"/>
  <path class="st0" d="M232.8,107.8h6v-6h-6v6Z"/>
  <path class="st0" d="M238.9,101.7h6v-6h-6v6Z"/>
  <path class="st0" d="M244.9,95.7h6v-6h-6v6Z"/>
  <path class="st0" d="M250.9,89.7h6v-6h-6v6Z"/>
  <path class="st0" d="M244.9,83.6h6v-6h-6v6Z"/>
  <path class="st0" d="M238.9,77.6h6v-6h-6v6Z"/>
  <path class="st0" d="M232.8,71.5h6v-6h-6v6Z"/>
  <path class="st0" d="M226.8,65.5h6v-6h-6v6Z"/>
  <path class="st2" d="M232.8,113.8h6v-6h-6v6Z"/>
  <path class="st2" d="M238.9,107.8h6v-6h-6v6Z"/>
  <path class="st2" d="M244.9,101.7h6v-6h-6v6Z"/>
  <path class="st2" d="M250.9,95.7h6v-6h-6v6Z"/>
  <path class="st2" d="M257,89.7h6v-6h-6v6Z"/>
  <path class="st2" d="M250.9,83.6h6v-6h-6v6Z"/>
  <path class="st2" d="M244.9,77.6h6v-6h-6v6Z"/>
  <path class="st2" d="M238.9,71.5h6v-6h-6v6Z"/>
  <path class="st2" d="M232.8,65.5h6v-6h-6v6Z"/>
  <path class="st0" d="M238.9,113.8h6v-6h-6v6Z"/>
  <path class="st0" d="M244.9,107.8h6v-6h-6v6Z"/>
  <path class="st0" d="M250.9,101.7h6v-6h-6v6Z"/>
  <path class="st0" d="M257,95.7h6v-6h-6v6Z"/>
  <path class="st0" d="M263,89.7h6v-6h-6v6Z"/>
  <path class="st0" d="M257,83.6h6v-6h-6v6Z"/>
  <path class="st0" d="M250.9,77.6h6v-6h-6v6Z"/>
  <path class="st0" d="M244.9,71.5h6v-6h-6v6Z"/>
  <path class="st0" d="M238.9,65.5h6v-6h-6v6Z"/>
  <path class="st2" d="M244.9,113.8h6v-6h-6v6Z"/>
  <path class="st2" d="M250.9,107.8h6v-6h-6v6Z"/>
  <path class="st2" d="M257,101.7h6v-6h-6v6Z"/>
  <path class="st2" d="M263,95.7h6v-6h-6v6Z"/>
  <path class="st2" d="M269.1,89.7h6v-6h-6v6Z"/>
  <path class="st2" d="M263,83.6h6v-6h-6v6Z"/>
  <path class="st2" d="M257,77.6h6v-6h-6v6Z"/>
  <path class="st2" d="M250.9,71.5h6v-6h-6v6Z"/>
  <path class="st2" d="M244.9,65.5h6v-6h-6v6Z"/>
  <path class="st0" d="M250.9,113.8h6v-6h-6v6Z"/>
  <path class="st0" d="M257,107.8h6v-6h-6v6Z"/>
  <path class="st0" d="M263,101.7h6v-6h-6v6Z"/>
  <path class="st0" d="M269.1,95.7h6v-6h-6v6Z"/>
  <path class="st0" d="M275.1,89.7h6v-6h-6v6Z"/>
  <path class="st0" d="M269.1,83.6h6v-6h-6v6Z"/>
  <path class="st0" d="M263,77.6h6v-6h-6v6Z"/>
  <path class="st0" d="M257,71.5h6v-6h-6v6Z"/>
  <path class="st0" d="M250.9,65.5h6v-6h-6v6Z"/>
  <path class="st2" d="M172.4,71.5v-6h-6v6h6Z"/>
  <path class="st2" d="M178.5,77.6v-6h-6v6h6Z"/>
  <path class="st2" d="M166.4,77.6v-6h-6v6h6Z"/>
  <path class="st0" d="M172.4,65.5v-6h-6v6h6Z"/>
  <path class="st0" d="M178.5,71.5v-6h-6v6h6Z"/>
  <path class="st0" d="M172.4,77.6v-6h-6v6h6Z"/>
  <path class="st0" d="M184.5,77.6v-6h-6v6h6Z"/>
  <path class="st0" d="M160.4,77.6v-6h-6v6h6Z"/>
  <path class="st2" d="M178.5,89.7v-6h-6v6h6Z"/>
  <path class="st2" d="M166.4,89.7v-6h-6v6h6Z"/>
  <path class="st0" d="M172.4,89.7v-6h-6v6h6Z"/>
  <path class="st0" d="M184.5,89.7v-6h-6v6h6Z"/>
  <path class="st2" d="M190.6,89.7v-6h-6v6h6Z"/>
  <path class="st0" d="M196.6,89.7v-6h-6v6h6Z"/>
  <path class="st0" d="M160.4,89.7v-6h-6v6h6Z"/>
  <path class="st2" d="M154.3,89.7v-6h-6v6h6Z"/>
  <path class="st0" d="M148.3,89.7v-6h-6v6h6Z"/>
  <path class="st0" d="M166.4,71.5v-6h-6v6h6Z"/>
  <path class="st2" d="M172.4,83.6v-6h-6v6h6Z"/>
  <path class="st0" d="M178.5,83.6v-6h-6v6h6Z"/>
  <path class="st2" d="M184.5,83.6v-6h-6v6h6Z"/>
  <path class="st0" d="M190.6,83.6v-6h-6v6h6Z"/>
  <path class="st0" d="M166.4,83.6v-6h-6v6h6Z"/>
  <path class="st2" d="M160.4,83.6v-6h-6v6h6Z"/>
  <path class="st0" d="M154.3,83.6v-6h-6v6h6Z"/>
  <path class="st2" d="M166.4,101.7v6h6v-6h-6Z"/>
  <path class="st2" d="M160.4,95.7v6h6v-6h-6Z"/>
  <path class="st2" d="M172.5,95.7v6h6v-6h-6Z"/>
  <path class="st0" d="M166.4,107.8v6h6v-6h-6Z"/>
  <path class="st0" d="M160.4,101.7v6h6v-6h-6Z"/>
  <path class="st0" d="M166.4,95.7v6h6v-6h-6Z"/>
  <path class="st0" d="M154.3,95.7v6h6v-6h-6Z"/>
  <path class="st0" d="M178.5,95.7v6h6v-6h-6Z"/>
  <path class="st0" d="M172.4,101.7v6h6v-6h-6Z"/>
  <path class="st2" d="M166.4,89.7v6h6v-6h-6Z"/>
  <path class="st0" d="M160.4,89.7v6h6v-6h-6Z"/>
  <path class="st2" d="M154.3,89.7v6h6v-6h-6Z"/>
  <path class="st0" d="M148.3,89.7v6h6v-6h-6Z"/>
  <path class="st0" d="M172.4,89.7v6h6v-6h-6Z"/>
  <path class="st2" d="M178.5,89.7v6h6v-6h-6Z"/>
  <path class="st0" d="M184.5,89.7v6h6v-6h-6Z"/>
  <path class="st0" d="M269,65.5v-6h-6v6h6Z"/>
  <path class="st4" d="M263,65.5v-6h-6v6h6Z"/>
  <path class="st4" d="M269,71.5v-6h-6v6h6Z"/>
  <path class="st0" d="M275.1,71.5v-6h-6v6h6Z"/>
  <path class="st4" d="M275.1,77.6v-6h-6v6h6Z"/>
  <path class="st4" d="M275.1,65.5v-6h-6v6h6Z"/>
  <path class="st0" d="M281.1,77.6v-6h-6v6h6Z"/>
  <path class="st0" d="M281.1,65.5v-6h-6v6h6Z"/>
  <path class="st4" d="M281.1,83.6v-6h-6v6h6Z"/>
  <path class="st4" d="M281.1,71.6v-6h-6v6h6Z"/>
  <path class="st0" d="M275.1,101.7h6v-6h-6v6Z"/>
  <path class="st4" d="M275.1,95.7h6v-6h-6v6Z"/>
  <path class="st4" d="M269.1,101.7h6v-6h-6v6Z"/>
  <path class="st0" d="M269.1,107.8h6v-6h-6v6Z"/>
  <path class="st4" d="M263,107.8h6v-6h-6v6Z"/>
  <path class="st4" d="M275.1,107.8h6v-6h-6v6Z"/>
  <path class="st0" d="M263,113.8h6v-6h-6v6Z"/>
  <path class="st0" d="M275.1,113.8h6v-6h-6v6Z"/>
  <path class="st4" d="M257,113.8h6v-6h-6v6Z"/>
  <path class="st4" d="M269.1,113.8h6v-6h-6v6Z"/>
  <path class="st4" d="M278.1,119.9h9v-2h-9v2Z"/>
  <path class="st4" d="M275.1,119.9h3v-2h-3v2Z"/>
  <path class="st0" d="M275.1,117.8h2v-2h-2v2Z"/>
  <path class="st0" d="M279.1,117.8h6v-4.2h-6v4.2Z"/>
  <path class="st0" d="M275.1,115.8h6v-2h-6v2Z"/>
  <path class="st4" d="M277.1,117.8h2v-2h-2v2Z"/>
  <path class="st4" d="M272.1,119.9h3v-2h-3v2Z"/>
  <path class="st4" d="M269.1,119.9h3v-2h-3v2Z"/>
  <path class="st0" d="M269.1,117.8h2v-2h-2v2Z"/>
  <path class="st0" d="M273.1,117.8h2v-2h-2v2Z"/>
  <path class="st0" d="M269.1,115.8h6v-2h-6v2Z"/>
  <path class="st4" d="M271.1,117.8h2v-2h-2v2Z"/>
  <path class="st4" d="M266,119.9h3v-2h-3v2Z"/>
  <path class="st4" d="M263,119.9h3v-2h-3v2Z"/>
  <path class="st0" d="M263,117.8h2v-2h-2v2Z"/>
  <path class="st0" d="M267.1,117.8h2v-2h-2v2Z"/>
  <path class="st0" d="M263,115.8h6v-2h-6v2Z"/>
  <path class="st4" d="M265,117.8h2v-2h-2v2Z"/>
  <path class="st4" d="M260,119.9h3v-2h-3v2Z"/>
  <path class="st4" d="M257,119.9h3v-2h-3v2Z"/>
  <path class="st0" d="M257,117.8h2v-2h-2v2Z"/>
  <path class="st0" d="M261,117.8h2v-2h-2v2Z"/>
  <path class="st0" d="M257,115.8h6v-2h-6v2Z"/>
  <path class="st4" d="M259,117.8h2v-2h-2v2Z"/>
  <path class="st4" d="M254,119.9h3v-2h-3v2Z"/>
  <path class="st4" d="M250.9,119.9h3v-2h-3v2Z"/>
  <path class="st0" d="M250.9,117.8h2v-2h-2v2Z"/>
  <path class="st0" d="M255,117.8h2v-2h-2v2Z"/>
  <path class="st0" d="M250.9,115.8h6v-2h-6v2Z"/>
  <path class="st4" d="M253,117.8h2v-2h-2v2Z"/>
  <path class="st4" d="M247.9,119.9h3v-2h-3v2Z"/>
  <path class="st4" d="M244.9,119.9h3v-2h-3v2Z"/>
  <path class="st0" d="M244.9,117.8h2v-2h-2v2Z"/>
  <path class="st0" d="M248.9,117.8h2v-2h-2v2Z"/>
  <path class="st0" d="M244.9,115.8h6v-2h-6v2Z"/>
  <path class="st4" d="M246.9,117.8h2v-2h-2v2Z"/>
  <path class="st4" d="M241.9,119.9h3v-2h-3v2Z"/>
  <path class="st4" d="M238.9,119.9h3v-2h-3v2Z"/>
  <path class="st0" d="M238.9,117.8h2v-2h-2v2Z"/>
  <path class="st0" d="M242.9,117.8h2v-2h-2v2Z"/>
  <path class="st0" d="M238.9,115.8h6v-2h-6v2Z"/>
  <path class="st4" d="M240.9,117.8h2v-2h-2v2Z"/>
  <path class="st4" d="M235.9,119.9h3v-2h-3v2Z"/>
  <path class="st4" d="M232.8,119.9h3v-2h-3v2Z"/>
  <path class="st0" d="M232.8,117.8h2v-2h-2v2Z"/>
  <path class="st0" d="M236.9,117.8h2v-2h-2v2Z"/>
  <path class="st0" d="M232.8,115.8h6v-2h-6v2Z"/>
  <path class="st4" d="M234.8,117.8h2v-2h-2v2Z"/>
  <path class="st4" d="M229.8,119.9h3v-2h-3v2Z"/>
  <path class="st4" d="M226.8,119.9h3v-2h-3v2Z"/>
  <path class="st0" d="M226.8,117.8h2v-2h-2v2Z"/>
  <path class="st0" d="M230.8,117.8h2v-2h-2v2Z"/>
  <path class="st0" d="M226.8,115.8h6v-2h-6v2Z"/>
  <path class="st4" d="M228.8,117.8h2v-2h-2v2Z"/>
  <path class="st4" d="M223.8,119.9h3v-2h-3v2Z"/>
  <path class="st4" d="M220.7,119.9h3v-2h-3v2Z"/>
  <path class="st0" d="M220.8,117.8h2v-2h-2v2Z"/>
  <path class="st0" d="M224.8,117.8h2v-2h-2v2Z"/>
  <path class="st0" d="M220.7,115.8h6v-2h-6v2Z"/>
  <path class="st4" d="M222.8,117.8h2v-2h-2v2Z"/>
  <path class="st4" d="M217.7,119.9h3v-2h-3v2Z"/>
  <path class="st4" d="M214.7,119.9h3v-2h-3v2Z"/>
  <path class="st0" d="M214.7,117.8h2v-2h-2v2Z"/>
  <path class="st0" d="M218.7,117.8h2v-2h-2v2Z"/>
  <path class="st0" d="M214.7,115.8h6v-2h-6v2Z"/>
  <path class="st4" d="M216.7,117.8h2v-2h-2v2Z"/>
  <path class="st4" d="M211.7,119.9h3v-2h-3v2Z"/>
  <path class="st4" d="M208.7,119.9h3v-2h-3v2Z"/>
  <path class="st0" d="M208.7,117.8h2v-2h-2v2Z"/>
  <path class="st0" d="M212.7,117.8h2v-2h-2v2Z"/>
  <path class="st0" d="M208.7,115.8h6v-2h-6v2Z"/>
  <path class="st4" d="M210.7,117.8h2v-2h-2v2Z"/>
  <path class="st4" d="M205.7,119.9h3v-2h-3v2Z"/>
  <path class="st4" d="M202.6,119.9h3v-2h-3v2Z"/>
  <path class="st0" d="M202.6,117.8h2v-2h-2v2Z"/>
  <path class="st0" d="M206.7,117.8h2v-2h-2v2Z"/>
  <path class="st0" d="M202.6,115.8h6v-2h-6v2Z"/>
  <path class="st4" d="M204.7,117.8h2v-2h-2v2Z"/>
  <path class="st4" d="M199.6,119.9h3v-2h-3v2Z"/>
  <path class="st4" d="M196.6,119.9h3v-2h-3v2Z"/>
  <path class="st0" d="M196.6,117.8h2v-2h-2v2Z"/>
  <path class="st0" d="M200.6,117.8h2v-2h-2v2Z"/>
  <path class="st0" d="M196.6,115.8h6v-2h-6v2Z"/>
  <path class="st4" d="M198.6,117.8h2v-2h-2v2Z"/>
  <path class="st4" d="M193.6,119.9h3v-2h-3v2Z"/>
  <path class="st4" d="M190.6,119.9h3v-2h-3v2Z"/>
  <path class="st0" d="M190.6,117.8h2v-2h-2v2Z"/>
  <path class="st0" d="M194.6,117.8h2v-2h-2v2Z"/>
  <path class="st0" d="M190.6,115.8h6v-2h-6v2Z"/>
  <path class="st4" d="M192.6,117.8h2v-2h-2v2Z"/>
  <path class="st4" d="M187.5,119.9h3v-2h-3v2Z"/>
  <path class="st4" d="M184.5,119.9h3v-2h-3v2Z"/>
  <path class="st0" d="M184.5,117.8h2v-2h-2v2Z"/>
  <path class="st0" d="M188.5,117.8h2v-2h-2v2Z"/>
  <path class="st0" d="M184.5,115.8h6v-2h-6v2Z"/>
  <path class="st4" d="M186.5,117.8h2v-2h-2v2Z"/>
  <path class="st4" d="M181.5,119.9h3v-2h-3v2Z"/>
  <path class="st4" d="M178.5,119.9h3v-2h-3v2Z"/>
  <path class="st0" d="M178.5,117.8h2v-2h-2v2Z"/>
  <path class="st0" d="M182.5,117.8h2v-2h-2v2Z"/>
  <path class="st0" d="M178.5,115.8h6v-2h-6v2Z"/>
  <path class="st4" d="M180.5,117.8h2v-2h-2v2Z"/>
  <path class="st4" d="M175.5,119.9h3v-2h-3v2Z"/>
  <path class="st4" d="M172.4,119.9h3v-2h-3v2Z"/>
  <path class="st0" d="M172.4,117.8h2v-2h-2v2Z"/>
  <path class="st0" d="M176.5,117.8h2v-2h-2v2Z"/>
  <path class="st0" d="M172.4,115.8h6v-2h-6v2Z"/>
  <path class="st4" d="M174.5,117.8h2v-2h-2v2Z"/>
  <path class="st4" d="M169.4,119.9h3v-2h-3v2Z"/>
  <path class="st4" d="M166.4,119.9h3v-2h-3v2Z"/>
  <path class="st0" d="M166.4,117.8h2v-2h-2v2Z"/>
  <path class="st0" d="M170.4,117.8h2v-2h-2v2Z"/>
  <path class="st0" d="M166.4,115.8h6v-2h-6v2Z"/>
  <path class="st4" d="M168.4,117.8h2v-2h-2v2Z"/>
  <path class="st4" d="M163.4,119.9h3v-2h-3v2Z"/>
  <path class="st4" d="M160.4,119.9h3v-2h-3v2Z"/>
  <path class="st0" d="M160.4,117.8h2v-2h-2v2Z"/>
  <path class="st0" d="M164.4,117.8h2v-2h-2v2Z"/>
  <path class="st0" d="M160.4,115.8h6v-2h-6v2Z"/>
  <path class="st4" d="M162.4,117.8h2v-2h-2v2Z"/>
  <path class="st4" d="M157.3,119.9h3v-2h-3v2Z"/>
  <path class="st4" d="M154.3,119.9h3v-2h-3v2Z"/>
  <path class="st0" d="M154.3,117.8h2v-2h-2v2Z"/>
  <path class="st0" d="M158.4,117.8h2v-2h-2v2Z"/>
  <path class="st0" d="M154.3,115.8h6v-2h-6v2Z"/>
  <path class="st4" d="M156.3,117.8h2v-2h-2v2Z"/>
  <path class="st4" d="M151.3,119.9h3v-2h-3v2Z"/>
  <path class="st4" d="M148.3,119.9h3v-2h-3v2Z"/>
  <path class="st0" d="M148.3,117.8h2v-2h-2v2Z"/>
  <path class="st0" d="M152.3,117.8h2v-2h-2v2Z"/>
  <path class="st0" d="M148.3,115.8h6v-2h-6v2Z"/>
  <path class="st4" d="M150.3,117.8h2v-2h-2v2Z"/>
  <path class="st4" d="M145.3,119.9h3v-2h-3v2Z"/>
  <path class="st4" d="M142.3,119.9h3v-2h-3v2Z"/>
  <path class="st0" d="M142.3,117.8h2v-2h-2v2Z"/>
  <path class="st0" d="M146.3,117.8h2v-2h-2v2Z"/>
  <path class="st0" d="M142.3,115.8h6v-2h-6v2Z"/>
  <path class="st4" d="M144.3,117.8h2v-2h-2v2Z"/>
  <path class="st4" d="M139.2,119.9h3v-2h-3v2Z"/>
  <path class="st4" d="M136.2,119.9h3v-2h-3v2Z"/>
  <path class="st0" d="M136.2,117.8h2v-2h-2v2Z"/>
  <path class="st0" d="M140.2,117.8h2v-2h-2v2Z"/>
  <path class="st0" d="M136.2,115.8h6v-2h-6v2Z"/>
  <path class="st4" d="M138.2,117.8h2v-2h-2v2Z"/>
  <path class="st4" d="M133.2,119.9h3v-2h-3v2Z"/>
  <path class="st4" d="M130.2,119.9h3v-2h-3v2Z"/>
  <path class="st0" d="M130.2,117.8h2v-2h-2v2Z"/>
  <path class="st0" d="M134.2,117.8h2v-2h-2v2Z"/>
  <path class="st0" d="M130.2,115.8h6v-2h-6v2Z"/>
  <path class="st4" d="M132.2,117.8h2v-2h-2v2Z"/>
  <path class="st4" d="M127.1,119.9h3v-2h-3v2Z"/>
  <path class="st4" d="M124.1,119.9h3v-2h-3v2Z"/>
  <path class="st0" d="M124.1,117.8h2v-2h-2v2Z"/>
  <path class="st0" d="M128.2,117.8h2v-2h-2v2Z"/>
  <path class="st0" d="M124.1,115.8h6v-2h-6v2Z"/>
  <path class="st4" d="M126.1,117.8h2v-2h-2v2Z"/>
  <path class="st4" d="M121.1,119.9h3v-2h-3v2Z"/>
  <path class="st4" d="M118.1,119.9h3v-2h-3v2Z"/>
  <path class="st0" d="M118.1,117.8h2v-2h-2v2Z"/>
  <path class="st0" d="M122.1,117.8h2v-2h-2v2Z"/>
  <path class="st0" d="M118.1,115.8h6v-2h-6v2Z"/>
  <path class="st4" d="M120.1,117.8h2v-2h-2v2Z"/>
  <path class="st4" d="M115.1,119.9h3v-2h-3v2Z"/>
  <path class="st4" d="M112.1,119.9h3v-2h-3v2Z"/>
  <path class="st0" d="M112.1,117.8h2v-2h-2v2Z"/>
  <path class="st0" d="M116.1,117.8h2v-2h-2v2Z"/>
  <path class="st0" d="M112.1,115.8h6v-2h-6v2Z"/>
  <path class="st4" d="M114.1,117.8h2v-2h-2v2Z"/>
  <path class="st4" d="M109,119.9h3v-2h-3v2Z"/>
  <path class="st4" d="M106,119.9h3v-2h-3v2Z"/>
  <path class="st0" d="M106,117.8h2v-2h-2v2Z"/>
  <path class="st0" d="M110,117.8h2v-2h-2v2Z"/>
  <path class="st0" d="M106,115.8h6v-2h-6v2Z"/>
  <path class="st4" d="M108,117.8h2v-2h-2v2Z"/>
  <path class="st4" d="M103,119.9h3v-2h-3v2Z"/>
  <path class="st4" d="M100,119.9h3v-2h-3v2Z"/>
  <path class="st0" d="M100,117.8h2v-2h-2v2Z"/>
  <path class="st0" d="M104,117.8h2v-2h-2v2Z"/>
  <path class="st0" d="M100,115.8h6v-2h-6v2Z"/>
  <path class="st4" d="M102,117.8h2v-2h-2v2Z"/>
  <path class="st4" d="M97,119.9h3v-2h-3v2Z"/>
  <path class="st4" d="M93.9,119.9h3v-2h-3v2Z"/>
  <path class="st0" d="M93.9,117.8h2v-2h-2v2Z"/>
  <path class="st0" d="M98,117.8h2v-2h-2v2Z"/>
  <path class="st0" d="M93.9,115.8h6v-2h-6v2Z"/>
  <path class="st4" d="M96,117.8h2v-2h-2v2Z"/>
  <path class="st4" d="M90.9,119.9h3v-2h-3v2Z"/>
  <path class="st4" d="M87.9,119.9h3v-2h-3v2Z"/>
  <path class="st0" d="M87.9,117.8h2v-2h-2v2Z"/>
  <path class="st0" d="M91.9,117.8h2v-2h-2v2Z"/>
  <path class="st0" d="M87.9,115.8h6v-2h-6v2Z"/>
  <path class="st4" d="M89.9,117.8h2v-2h-2v2Z"/>
  <path class="st4" d="M84.9,119.9h3v-2h-3v2Z"/>
  <path class="st4" d="M81.9,119.9h3v-2h-3v2Z"/>
  <path class="st0" d="M81.9,117.8h2v-2h-2v2Z"/>
  <path class="st0" d="M85.9,117.8h2v-2h-2v2Z"/>
  <path class="st0" d="M81.9,115.8h6v-2h-6v2Z"/>
  <path class="st4" d="M83.9,117.8h2v-2h-2v2Z"/>
  <path class="st4" d="M78.8,119.9h3v-2h-3v2Z"/>
  <path class="st4" d="M75.8,119.9h3v-2h-3v2Z"/>
  <path class="st0" d="M75.8,117.8h2v-2h-2v2Z"/>
  <path class="st0" d="M79.9,117.8h2v-2h-2v2Z"/>
  <path class="st0" d="M75.8,115.8h6v-2h-6v2Z"/>
  <path class="st4" d="M77.8,117.8h2v-2h-2v2Z"/>
  <path class="st4" d="M72.8,119.9h3v-2h-3v2Z"/>
  <path class="st4" d="M69.8,119.9h3v-2h-3v2Z"/>
  <path class="st0" d="M69.8,117.8h2v-2h-2v2Z"/>
  <path class="st0" d="M73.8,117.8h2v-2h-2v2Z"/>
  <path class="st0" d="M69.8,115.8h6v-2h-6v2Z"/>
  <path class="st4" d="M71.8,117.8h2v-2h-2v2Z"/>
  <path class="st4" d="M66.8,119.9h3v-2h-3v2Z"/>
  <path class="st4" d="M63.7,119.9h3v-2h-3v2Z"/>
  <path class="st0" d="M63.7,117.8h2v-2h-2v2Z"/>
  <path class="st0" d="M67.8,117.8h2v-2h-2v2Z"/>
  <path class="st0" d="M63.7,115.8h6v-2h-6v2Z"/>
  <path class="st4" d="M65.8,117.8h2v-2h-2v2Z"/>
  <path class="st4" d="M60.7,119.9h3v-2h-3v2Z"/>
  <path class="st4" d="M52.3,119.9h8.4v-2h-8.4v2Z"/>
  <path class="st0" d="M53.9,117.8h5.8v-5.8h-5.8v5.8Z"/>
  <path class="st0" d="M61.7,117.8h2v-2h-2v2Z"/>
  <path class="st0" d="M57.7,115.8h6v-2h-6v2Z"/>
  <path class="st4" d="M59.7,117.8h2v-2h-2v2Z"/>
  <path class="st4" d="M60.7,53.4h-8.4v2h8.4v-2Z"/>
  <path class="st4" d="M63.7,53.4h-3v2h3v-2Z"/>
  <path class="st0" d="M63.7,55.4h-2v2h2v-2Z"/>
  <path class="st0" d="M59.7,55.4h-5.4v4h5.4v-4Z"/>
  <path class="st0" d="M63.7,57.5h-6v2h6v-2Z"/>
  <path class="st4" d="M61.7,55.4h-2v2h2v-2Z"/>
  <path class="st4" d="M66.8,53.4h-3v2h3v-2Z"/>
  <path class="st4" d="M69.8,53.4h-3v2h3v-2Z"/>
  <path class="st0" d="M69.8,55.4h-2v2h2v-2Z"/>
  <path class="st0" d="M65.8,55.4h-2v2h2v-2Z"/>
  <path class="st0" d="M69.8,57.5h-6v2h6v-2Z"/>
  <path class="st4" d="M67.8,55.4h-2v2h2v-2Z"/>
  <path class="st4" d="M72.8,53.4h-3v2h3v-2Z"/>
  <path class="st4" d="M75.8,53.4h-3v2h3v-2Z"/>
  <path class="st0" d="M75.8,55.4h-2v2h2v-2Z"/>
  <path class="st0" d="M71.8,55.4h-2v2h2v-2Z"/>
  <path class="st0" d="M75.8,57.5h-6v2h6v-2Z"/>
  <path class="st4" d="M73.8,55.4h-2v2h2v-2Z"/>
  <path class="st4" d="M78.8,53.4h-3v2h3v-2Z"/>
  <path class="st4" d="M81.9,53.4h-3v2h3v-2Z"/>
  <path class="st0" d="M81.9,55.4h-2v2h2v-2Z"/>
  <path class="st0" d="M77.8,55.4h-2v2h2v-2Z"/>
  <path class="st0" d="M81.9,57.5h-6v2h6v-2Z"/>
  <path class="st4" d="M79.8,55.4h-2v2h2v-2Z"/>
  <path class="st4" d="M84.9,53.4h-3v2h3v-2Z"/>
  <path class="st4" d="M87.9,53.4h-3v2h3v-2Z"/>
  <path class="st0" d="M87.9,55.4h-2v2h2v-2Z"/>
  <path class="st0" d="M83.9,55.4h-2v2h2v-2Z"/>
  <path class="st0" d="M87.9,57.5h-6v2h6v-2Z"/>
  <path class="st4" d="M85.9,55.4h-2v2h2v-2Z"/>
  <path class="st4" d="M90.9,53.4h-3v2h3v-2Z"/>
  <path class="st4" d="M93.9,53.4h-3v2h3v-2Z"/>
  <path class="st0" d="M93.9,55.4h-2v2h2v-2Z"/>
  <path class="st0" d="M89.9,55.4h-2v2h2v-2Z"/>
  <path class="st0" d="M93.9,57.5h-6v2h6v-2Z"/>
  <path class="st4" d="M91.9,55.4h-2v2h2v-2Z"/>
  <path class="st4" d="M97,53.4h-3v2h3v-2Z"/>
  <path class="st4" d="M100,53.4h-3v2h3v-2Z"/>
  <path class="st0" d="M100,55.4h-2v2h2v-2Z"/>
  <path class="st0" d="M95.9,55.4h-2v2h2v-2Z"/>
  <path class="st0" d="M100,57.5h-6v2h6v-2Z"/>
  <path class="st4" d="M98,55.4h-2v2h2v-2Z"/>
  <path class="st4" d="M103,53.4h-3v2h3v-2Z"/>
  <path class="st4" d="M106,53.4h-3v2h3v-2Z"/>
  <path class="st0" d="M106,55.4h-2v2h2v-2Z"/>
  <path class="st0" d="M102,55.4h-2v2h2v-2Z"/>
  <path class="st0" d="M106,57.5h-6v2h6v-2Z"/>
  <path class="st4" d="M104,55.4h-2v2h2v-2Z"/>
  <path class="st4" d="M109,53.4h-3v2h3v-2Z"/>
  <path class="st4" d="M112.1,53.4h-3v2h3v-2Z"/>
  <path class="st0" d="M112.1,55.4h-2v2h2v-2Z"/>
  <path class="st0" d="M108,55.4h-2v2h2v-2Z"/>
  <path class="st0" d="M112.1,57.5h-6v2h6v-2Z"/>
  <path class="st4" d="M110,55.4h-2v2h2v-2Z"/>
  <path class="st4" d="M115.1,53.4h-3v2h3v-2Z"/>
  <path class="st4" d="M118.1,53.4h-3v2h3v-2Z"/>
  <path class="st0" d="M118.1,55.4h-2v2h2v-2Z"/>
  <path class="st0" d="M114.1,55.4h-2v2h2v-2Z"/>
  <path class="st0" d="M118.1,57.5h-6v2h6v-2Z"/>
  <path class="st4" d="M116.1,55.4h-2v2h2v-2Z"/>
  <path class="st4" d="M121.1,53.4h-3v2h3v-2Z"/>
  <path class="st4" d="M124.1,53.4h-3v2h3v-2Z"/>
  <path class="st0" d="M124.1,55.4h-2v2h2v-2Z"/>
  <path class="st0" d="M120.1,55.4h-2v2h2v-2Z"/>
  <path class="st0" d="M124.1,57.5h-6v2h6v-2Z"/>
  <path class="st4" d="M122.1,55.4h-2v2h2v-2Z"/>
  <path class="st4" d="M127.2,53.4h-3v2h3v-2Z"/>
  <path class="st4" d="M130.2,53.4h-3v2h3v-2Z"/>
  <path class="st0" d="M130.2,55.4h-2v2h2v-2Z"/>
  <path class="st0" d="M126.1,55.4h-2v2h2v-2Z"/>
  <path class="st0" d="M130.2,57.5h-6v2h6v-2Z"/>
  <path class="st4" d="M128.2,55.4h-2v2h2v-2Z"/>
  <path class="st4" d="M133.2,53.4h-3v2h3v-2Z"/>
  <path class="st4" d="M136.2,53.4h-3v2h3v-2Z"/>
  <path class="st0" d="M136.2,55.4h-2v2h2v-2Z"/>
  <path class="st0" d="M132.2,55.4h-2v2h2v-2Z"/>
  <path class="st0" d="M136.2,57.5h-6v2h6v-2Z"/>
  <path class="st4" d="M134.2,55.4h-2v2h2v-2Z"/>
  <path class="st4" d="M139.2,53.4h-3v2h3v-2Z"/>
  <path class="st4" d="M142.2,53.4h-3v2h3v-2Z"/>
  <path class="st0" d="M142.2,55.4h-2v2h2v-2Z"/>
  <path class="st0" d="M138.2,55.4h-2v2h2v-2Z"/>
  <path class="st0" d="M142.3,57.5h-6v2h6v-2Z"/>
  <path class="st4" d="M140.2,55.4h-2v2h2v-2Z"/>
  <path class="st4" d="M145.3,53.4h-3v2h3v-2Z"/>
  <path class="st4" d="M148.3,53.4h-3v2h3v-2Z"/>
  <path class="st0" d="M148.3,55.4h-2v2h2v-2Z"/>
  <path class="st0" d="M144.3,55.4h-2v2h2v-2Z"/>
  <path class="st0" d="M148.3,57.5h-6v2h6v-2Z"/>
  <path class="st4" d="M146.3,55.4h-2v2h2v-2Z"/>
  <path class="st4" d="M151.3,53.4h-3v2h3v-2Z"/>
  <path class="st4" d="M154.3,53.4h-3v2h3v-2Z"/>
  <path class="st0" d="M154.3,55.4h-2v2h2v-2Z"/>
  <path class="st0" d="M150.3,55.4h-2v2h2v-2Z"/>
  <path class="st0" d="M154.3,57.5h-6v2h6v-2Z"/>
  <path class="st4" d="M152.3,55.4h-2v2h2v-2Z"/>
  <path class="st4" d="M157.3,53.4h-3v2h3v-2Z"/>
  <path class="st4" d="M160.4,53.4h-3v2h3v-2Z"/>
  <path class="st0" d="M160.4,55.4h-2v2h2v-2Z"/>
  <path class="st0" d="M156.3,55.4h-2v2h2v-2Z"/>
  <path class="st0" d="M160.4,57.5h-6v2h6v-2Z"/>
  <path class="st4" d="M158.3,55.4h-2v2h2v-2Z"/>
  <path class="st4" d="M163.4,53.4h-3v2h3v-2Z"/>
  <path class="st4" d="M166.4,53.4h-3v2h3v-2Z"/>
  <path class="st0" d="M166.4,55.4h-2v2h2v-2Z"/>
  <path class="st0" d="M162.4,55.4h-2v2h2v-2Z"/>
  <path class="st0" d="M166.4,57.5h-6v2h6v-2Z"/>
  <path class="st4" d="M164.4,55.4h-2v2h2v-2Z"/>
  <path class="st4" d="M169.4,53.4h-3v2h3v-2Z"/>
  <path class="st4" d="M172.4,53.4h-3v2h3v-2Z"/>
  <path class="st0" d="M172.4,55.4h-2v2h2v-2Z"/>
  <path class="st0" d="M168.4,55.4h-2v2h2v-2Z"/>
  <path class="st0" d="M172.4,57.5h-6v2h6v-2Z"/>
  <path class="st4" d="M170.4,55.4h-2v2h2v-2Z"/>
  <path class="st4" d="M175.5,53.4h-3v2h3v-2Z"/>
  <path class="st4" d="M178.5,53.4h-3v2h3v-2Z"/>
  <path class="st0" d="M178.5,55.4h-2v2h2v-2Z"/>
  <path class="st0" d="M174.5,55.4h-2v2h2v-2Z"/>
  <path class="st0" d="M178.5,57.5h-6v2h6v-2Z"/>
  <path class="st4" d="M176.5,55.4h-2v2h2v-2Z"/>
  <path class="st4" d="M181.5,53.4h-3v2h3v-2Z"/>
  <path class="st4" d="M184.5,53.4h-3v2h3v-2Z"/>
  <path class="st0" d="M184.5,55.4h-2v2h2v-2Z"/>
  <path class="st0" d="M180.5,55.4h-2v2h2v-2Z"/>
  <path class="st0" d="M184.5,57.5h-6v2h6v-2Z"/>
  <path class="st4" d="M182.5,55.4h-2v2h2v-2Z"/>
  <path class="st4" d="M187.5,53.4h-3v2h3v-2Z"/>
  <path class="st4" d="M190.6,53.4h-3v2h3v-2Z"/>
  <path class="st0" d="M190.6,55.4h-2v2h2v-2Z"/>
  <path class="st0" d="M186.5,55.4h-2v2h2v-2Z"/>
  <path class="st0" d="M190.6,57.5h-6v2h6v-2Z"/>
  <path class="st4" d="M188.5,55.4h-2v2h2v-2Z"/>
  <path class="st4" d="M193.6,53.4h-3v2h3v-2Z"/>
  <path class="st4" d="M196.6,53.4h-3v2h3v-2Z"/>
  <path class="st0" d="M196.6,55.4h-2v2h2v-2Z"/>
  <path class="st0" d="M192.6,55.4h-2v2h2v-2Z"/>
  <path class="st0" d="M196.6,57.5h-6v2h6v-2Z"/>
  <path class="st4" d="M194.6,55.4h-2v2h2v-2Z"/>
  <path class="st4" d="M199.6,53.4h-3v2h3v-2Z"/>
  <path class="st4" d="M202.6,53.4h-3v2h3v-2Z"/>
  <path class="st0" d="M202.6,55.4h-2v2h2v-2Z"/>
  <path class="st0" d="M198.6,55.4h-2v2h2v-2Z"/>
  <path class="st0" d="M202.6,57.5h-6v2h6v-2Z"/>
  <path class="st4" d="M200.6,55.4h-2v2h2v-2Z"/>
  <path class="st4" d="M205.7,53.4h-3v2h3v-2Z"/>
  <path class="st4" d="M208.7,53.4h-3v2h3v-2Z"/>
  <path class="st0" d="M208.7,55.4h-2v2h2v-2Z"/>
  <path class="st0" d="M204.6,55.4h-2v2h2v-2Z"/>
  <path class="st0" d="M208.7,57.5h-6v2h6v-2Z"/>
  <path class="st4" d="M206.7,55.4h-2v2h2v-2Z"/>
  <path class="st4" d="M211.7,53.4h-3v2h3v-2Z"/>
  <path class="st4" d="M214.7,53.4h-3v2h3v-2Z"/>
  <path class="st0" d="M214.7,55.4h-2v2h2v-2Z"/>
  <path class="st0" d="M210.7,55.4h-2v2h2v-2Z"/>
  <path class="st0" d="M214.7,57.5h-6v2h6v-2Z"/>
  <path class="st4" d="M212.7,55.4h-2v2h2v-2Z"/>
  <path class="st4" d="M217.7,53.4h-3v2h3v-2Z"/>
  <path class="st4" d="M220.8,53.4h-3v2h3v-2Z"/>
  <path class="st0" d="M220.7,55.4h-2v2h2v-2Z"/>
  <path class="st0" d="M216.7,55.4h-2v2h2v-2Z"/>
  <path class="st0" d="M220.8,57.5h-6v2h6v-2Z"/>
  <path class="st4" d="M218.7,55.4h-2v2h2v-2Z"/>
  <path class="st4" d="M223.8,53.4h-3v2h3v-2Z"/>
  <path class="st4" d="M226.8,53.4h-3v2h3v-2Z"/>
  <path class="st0" d="M226.8,55.4h-2v2h2v-2Z"/>
  <path class="st0" d="M222.8,55.4h-2v2h2v-2Z"/>
  <path class="st0" d="M226.8,57.5h-6v2h6v-2Z"/>
  <path class="st4" d="M224.8,55.4h-2v2h2v-2Z"/>
  <path class="st4" d="M229.8,53.4h-3v2h3v-2Z"/>
  <path class="st4" d="M232.8,53.4h-3v2h3v-2Z"/>
  <path class="st0" d="M232.8,55.4h-2v2h2v-2Z"/>
  <path class="st0" d="M228.8,55.4h-2v2h2v-2Z"/>
  <path class="st0" d="M232.8,57.5h-6v2h6v-2Z"/>
  <path class="st4" d="M230.8,55.4h-2v2h2v-2Z"/>
  <path class="st4" d="M235.8,53.4h-3v2h3v-2Z"/>
  <path class="st4" d="M238.9,53.4h-3v2h3v-2Z"/>
  <path class="st0" d="M238.9,55.4h-2v2h2v-2Z"/>
  <path class="st0" d="M234.8,55.4h-2v2h2v-2Z"/>
  <path class="st0" d="M238.9,57.5h-6v2h6v-2Z"/>
  <path class="st4" d="M236.9,55.4h-2v2h2v-2Z"/>
  <path class="st4" d="M241.9,53.4h-3v2h3v-2Z"/>
  <path class="st4" d="M244.9,53.4h-3v2h3v-2Z"/>
  <path class="st0" d="M244.9,55.4h-2v2h2v-2Z"/>
  <path class="st0" d="M240.9,55.4h-2v2h2v-2Z"/>
  <path class="st0" d="M244.9,57.5h-6v2h6v-2Z"/>
  <path class="st4" d="M242.9,55.4h-2v2h2v-2Z"/>
  <path class="st4" d="M247.9,53.4h-3v2h3v-2Z"/>
  <path class="st4" d="M250.9,53.4h-3v2h3v-2Z"/>
  <path class="st0" d="M250.9,55.4h-2v2h2v-2Z"/>
  <path class="st0" d="M246.9,55.4h-2v2h2v-2Z"/>
  <path class="st0" d="M250.9,57.5h-6v2h6v-2Z"/>
  <path class="st4" d="M248.9,55.4h-2v2h2v-2Z"/>
  <path class="st4" d="M254,53.4h-3v2h3v-2Z"/>
  <path class="st4" d="M257,53.4h-3v2h3v-2Z"/>
  <path class="st0" d="M257,55.4h-2v2h2v-2Z"/>
  <path class="st0" d="M253,55.4h-2v2h2v-2Z"/>
  <path class="st0" d="M257,57.5h-6v2h6v-2Z"/>
  <path class="st4" d="M255,55.4h-2v2h2v-2Z"/>
  <path class="st4" d="M260,53.4h-3v2h3v-2Z"/>
  <path class="st4" d="M263,53.4h-3v2h3v-2Z"/>
  <path class="st0" d="M263,55.4h-2v2h2v-2Z"/>
  <path class="st0" d="M259,55.4h-2v2h2v-2Z"/>
  <path class="st0" d="M263,57.5h-6v2h6v-2Z"/>
  <path class="st4" d="M261,55.4h-2v2h2v-2Z"/>
  <path class="st4" d="M266,53.4h-3v2h3v-2Z"/>
  <path class="st4" d="M269.1,53.4h-3v2h3v-2Z"/>
  <path class="st0" d="M269.1,55.4h-2v2h2v-2Z"/>
  <path class="st0" d="M265,55.4h-2v2h2v-2Z"/>
  <path class="st0" d="M269.1,57.5h-6v2h6v-2Z"/>
  <path class="st4" d="M267,55.4h-2v2h2v-2Z"/>
  <path class="st4" d="M272.1,53.4h-3v2h3v-2Z"/>
  <path class="st4" d="M275.1,53.4h-3v2h3v-2Z"/>
  <path class="st0" d="M275.1,55.4h-2v2h2v-2Z"/>
  <path class="st0" d="M271.1,55.4h-2v2h2v-2Z"/>
  <path class="st0" d="M275.1,57.5h-6v2h6v-2Z"/>
  <path class="st4" d="M273.1,55.4h-2v2h2v-2Z"/>
  <path class="st4" d="M278.1,53.4h-3v2h3v-2Z"/>
  <path class="st4" d="M287.1,53.4h-9v2h9v-2Z"/>
  <path class="st0" d="M281.1,55.4h-2v2h2v-2Z"/>
  <path class="st0" d="M277.1,55.4h-2v2h2v-2Z"/>
  <path class="st0" d="M281.1,57.5h-6v2h6v-2Z"/>
  <path class="st4" d="M279.1,55.4h-2v2h2v-2Z"/>
  <path class="st4" d="M54.4,117.8v-7h-2v9.1l2-2Z"/>
  <path class="st4" d="M52.3,107.8v3s2,0,2,0v-3h-2Z"/>
  <path class="st0" d="M54.3,107.8v2h2v-2h-2Z"/>
  <path class="st0" d="M54.4,111.8v2h2v-2h-2Z"/>
  <path class="st0" d="M56.4,107.8v6h2v-6h-2Z"/>
  <path class="st4" d="M54.4,109.8v2h2v-2h-2Z"/>
  <path class="st4" d="M52.3,104.8v3s2,0,2,0v-3h-2Z"/>
  <path class="st4" d="M52.3,101.7v3s2,0,2,0v-3h-2Z"/>
  <path class="st0" d="M54.3,101.7v2h2v-2h-2Z"/>
  <path class="st0" d="M54.4,105.8v2h2v-2h-2Z"/>
  <path class="st0" d="M56.4,101.7v6h2v-6h-2Z"/>
  <path class="st4" d="M54.4,103.8v2h2v-2h-2Z"/>
  <path class="st4" d="M52.3,98.7v3s2,0,2,0v-3h-2Z"/>
  <path class="st4" d="M52.3,95.7v3s2,0,2,0v-3h-2Z"/>
  <path class="st0" d="M54.3,95.7v2h2v-2h-2Z"/>
  <path class="st0" d="M54.4,99.7v2h2v-2h-2Z"/>
  <path class="st0" d="M56.4,95.7v6h2v-6h-2Z"/>
  <path class="st4" d="M54.4,97.7v2h2v-2h-2Z"/>
  <path class="st4" d="M52.3,92.7v3s2,0,2,0v-3h-2Z"/>
  <path class="st4" d="M52.3,89.7v3h2v-3h-2Z"/>
  <path class="st0" d="M54.4,89.7v2h2v-2h-2Z"/>
  <path class="st0" d="M54.3,93.7v2h2v-2h-2Z"/>
  <path class="st0" d="M56.4,89.7v6h2v-6h-2Z"/>
  <path class="st4" d="M54.4,91.7v2h2v-2h-2Z"/>
  <path class="st4" d="M52.3,86.6v3h2v-3h-2Z"/>
  <path class="st4" d="M52.3,83.6v3h2v-3h-2Z"/>
  <path class="st0" d="M54.4,83.6v2h2v-2h-2Z"/>
  <path class="st0" d="M54.3,87.6v2h2v-2h-2Z"/>
  <path class="st0" d="M56.4,83.6v6h2v-6h-2Z"/>
  <path class="st4" d="M54.4,85.6v2h2v-2h-2Z"/>
  <path class="st4" d="M52.3,80.6v3h2v-3h-2Z"/>
  <path class="st4" d="M52.3,77.6v3h2v-3h-2Z"/>
  <path class="st0" d="M54.4,77.6v2h2v-2h-2Z"/>
  <path class="st0" d="M54.3,81.6v2h2v-2h-2Z"/>
  <path class="st0" d="M56.4,77.6v6h2v-6h-2Z"/>
  <path class="st4" d="M54.4,79.6v2h2v-2h-2Z"/>
  <path class="st4" d="M52.3,74.6v3h2v-3h-2Z"/>
  <path class="st4" d="M52.3,71.5v3h2v-3h-2Z"/>
  <path class="st0" d="M54.4,71.5v2h2v-2h-2Z"/>
  <path class="st0" d="M54.4,75.6v2h2v-2h-2Z"/>
  <path class="st0" d="M56.4,71.5v6h2v-6h-2Z"/>
  <path class="st4" d="M54.3,73.6v2h2v-2h-2Z"/>
  <path class="st4" d="M52.3,68.5v3h2v-3h-2Z"/>
  <path class="st4" d="M52.3,65.5v3h2v-3h-2Z"/>
  <path class="st0" d="M54.4,65.5v2h2v-2h-2Z"/>
  <path class="st0" d="M54.4,69.5v2h2v-2h-2Z"/>
  <path class="st0" d="M56.4,65.5v6h2v-6h-2Z"/>
  <path class="st4" d="M54.3,67.5v2h2v-2h-2Z"/>
  <path class="st4" d="M52.3,62.5v3h2v-3h-2Z"/>
  <path class="st4" d="M54.4,62.5v-7l-2-2v9.1h2Z"/>
  <path class="st0" d="M54.3,59.5v2h2v-2h-2Z"/>
  <path class="st0" d="M54.4,63.5v2h2v-2h-2Z"/>
  <path class="st0" d="M56.4,59.5v6h2v-6h-2Z"/>
  <path class="st4" d="M54.4,61.5v2h2v-2h-2Z"/>
  <path class="st4" d="M285.1,55.4v7.5h2v-9.5l-2,2Z"/>
  <path class="st4" d="M287.1,65.9v-3h-2v3h2Z"/>
  <path class="st0" d="M285.1,65.9v-2h-2v2h2Z"/>
  <path class="st0" d="M285.1,61.9v-6.5h-5.2v6.5h5.2Z"/>
  <path class="st0" d="M283.1,65.9v-6h-2v6h2Z"/>
  <path class="st4" d="M285.1,63.9v-2h-2v2h2Z"/>
  <path class="st4" d="M287.1,69v-3h-2v3h2Z"/>
  <path class="st4" d="M287.1,72v-3h-2v3h2Z"/>
  <path class="st0" d="M285.1,72v-2h-2v2h2Z"/>
  <path class="st0" d="M285.1,67.9v-2h-2v2h2Z"/>
  <path class="st0" d="M283.1,72v-6h-2v6h2Z"/>
  <path class="st4" d="M285.1,70v-2h-2v2h2Z"/>
  <path class="st4" d="M287.1,75v-3h-2v3h2Z"/>
  <path class="st4" d="M287.1,78v-3h-2v3h2Z"/>
  <path class="st0" d="M285.1,78v-2h-2v2h2Z"/>
  <path class="st0" d="M285.1,74v-2h-2v2h2Z"/>
  <path class="st0" d="M283.1,78v-6h-2v6h2Z"/>
  <path class="st4" d="M285.1,76v-2h-2v2h2Z"/>
  <path class="st4" d="M287.1,81v-3h-2v3h2Z"/>
  <path class="st4" d="M287.1,84.1v-3h-2v3h2Z"/>
  <path class="st0" d="M285.1,84v-2h-2v2h2Z"/>
  <path class="st0" d="M285.1,80v-2h-2v2h2Z"/>
  <path class="st0" d="M283.1,84v-6h-2v6h2Z"/>
  <path class="st4" d="M285.1,82v-2h-2v2h2Z"/>
  <path class="st4" d="M287.1,87.1v-3h-2v3h2Z"/>
  <path class="st4" d="M287.1,90.1v-3h-2v3h2Z"/>
  <path class="st0" d="M285.1,90.1v-2h-2v2h2Z"/>
  <path class="st0" d="M285.1,86.1v-2h-2v2h2Z"/>
  <path class="st0" d="M283.1,90.1v-6h-2v6h2Z"/>
  <path class="st4" d="M285.1,88.1v-2h-2v2h2Z"/>
  <path class="st4" d="M287.1,93.1v-3h-2v3h2Z"/>
  <path class="st4" d="M287.1,96.1v-3h-2v3h2Z"/>
  <path class="st0" d="M285.1,96.1v-2h-2v2h2Z"/>
  <path class="st0" d="M285.1,92.1v-2h-2v2h2Z"/>
  <path class="st0" d="M283.1,96.1v-6h-2v6h2Z"/>
  <path class="st4" d="M285.1,94.1v-2h-2v2h2Z"/>
  <path class="st4" d="M287.1,99.2v-3h-2v3h2Z"/>
  <path class="st4" d="M287.1,102.2v-3h-2v3h2Z"/>
  <path class="st0" d="M285.1,102.2v-2h-2v2h2Z"/>
  <path class="st0" d="M285.1,98.1v-2h-2v2h2Z"/>
  <path class="st0" d="M283.1,102.2v-6h-2v6h2Z"/>
  <path class="st4" d="M285.1,100.2v-2h-2v2h2Z"/>
  <path class="st4" d="M287.1,105.2v-3h-2v3h2Z"/>
  <path class="st4" d="M287.1,108.2v-3h-2v3h2Z"/>
  <path class="st0" d="M285.1,108.2v-2h-2v2h2Z"/>
  <path class="st0" d="M285.1,104.2v-2h-2v2h2Z"/>
  <path class="st0" d="M283.1,108.2v-6h-2v6h2Z"/>
  <path class="st4" d="M285.1,106.2v-2h-2v2h2Z"/>
  <path class="st4" d="M287.1,111.2v-3h-2v3h2Z"/>
  <path class="st4" d="M285.1,111.2v6.6l2,2v-8.6h-2Z"/>
  <path class="st0" d="M285.1,114.2v-2h-2v2h2Z"/>
  <path class="st0" d="M285.1,110.2v-2h-2v2h2Z"/>
  <path class="st0" d="M283.1,114.2v-6h-2v6h2Z"/>
  <path class="st4" d="M285.1,112.2v-2h-2v2h2Z"/>
  <path class="st1" d="M184.5,95.8h6v-18.4h-1.5c-1.8,1.8-2.8,2.8-4.6,4.6v13.8h0Z"/>
  <path class="st1" d="M142.3,101.8h1.6c1.7-1.7,2.7-2.7,4.5-4.5v-31.8h-1.5c-1.8,1.8-2.8,2.8-4.6,4.6v31.7h0Z"/>
  <path class="st1" d="M130.2,95.7h6v-18.3h-1.5l-4.6,4.6v13.8h0Z"/>
  <path class="st1" d="M172.4,95.8h6v-12.2l-6-6v18.2Z"/>
  <path class="st1" d="M186.7,89.7h-66.6v6h66.6v-6Z"/>
  <path class="st1" d="M184.5,89.7h-3.5v6h3.5v-6Z"/>
  <path class="st1" d="M94,95.7h6v-18h-1.5c-1.8,1.8-2.8,2.8-4.6,4.6v13.5Z"/>
  <path class="st1" d="M95.6,89.7h-7.5v-24.1h-1.5c-1.8,1.8-2.8,2.8-4.6,4.6v20.9l4.7,4.7h8.9v-6h0Z"/>
  <path class="st1" d="M172.4,77.6h-26.2v6h26.2v-6Z"/>
  <path class="st1" d="M111.7,93.8h-6v-10.1l6-6v16.1Z"/>
  <path class="st1" d="M124.2,89.7h-28v6h28v-6Z"/>
  <path class="st1" d="M124.2,77.7h-12.5v6h12.5v-6Z"/>
  <path class="st1" d="M226.8,107.9h1.6c1.7-1.7,2.7-2.7,4.5-4.5v-25.7h-1.5c-1.8,1.8-2.8,2.8-4.6,4.6v25.6h0Z"/>
  <path class="st1" d="M202.6,95.7h6v-30.1h-1.5c-1.8,1.8-2.8,2.8-4.6,4.6v25.6h0Z"/>
  <path class="st1" d="M214.7,95.7h6v-18.3h-1.5c-1.8,1.8-2.8,2.8-4.6,4.6v13.8h0Z"/>
  <path class="st1" d="M232.8,71.6h-6v6h1.5c1.8-1.8,2.8-2.8,4.6-4.6v-1.5h0Z"/>
  <path class="st1" d="M190.6,101.8h-6v6h1.5c1.8-1.8,2.8-2.8,4.6-4.6v-1.5h0Z"/>
  <path class="st1" d="M136.2,101.8h-6v6h1.5l4.6-4.6v-1.5h0Z"/>
  <path class="st1" d="M220.7,71.6h-6v6h1.5c1.8-1.8,2.8-2.8,4.6-4.6v-1.5h0Z"/>
  <path class="st1" d="M217.7,89.7h-12v6h12v-6Z"/>
  <path class="st1" d="M244.9,94h-6v-10.2c2.4-2.4,3.7-3.7,6-6v16.3Z"/>
  <path class="st1" d="M257,89.7h-27.6v6h27.6v-6Z"/>
  <path class="st1" d="M257,77.7h-12.1v6h12.1v-6Z"/>
  <path class="st1" d="M100,71.6h-6v6h1.5c1.8-1.8,2.8-2.8,4.6-4.6v-1.5Z"/>
  <path class="st1" d="M257,99.8h-12.1v1.9h12.1v-1.9Z"/>
  <path class="st1" d="M231.3,65.6v1.5h-.7v-1.5h-1.6v1.5h-.7v-1.5h-1.5v3h6v-3h-1.6Z"/>
  <path class="st3" d="M53.8,134.3c-.5-.2-.8-.4-1.1-.6-.2-.2-.3-.3-.3-.3s0-.3.3-.5c.2-.2.4-.4.7-.6.3-.2.5-.3.6-.3s.1,0,.2,0c.6.6,1.3.8,2,.8s.7,0,.8-.2c.1-.2.2-.6.3-1.3,0-.4,0-.7,0-1.1-.2.2-.5.3-.7.5-.3.1-.5.2-.6.3-.3,0-.6,0-.9,0s-.7,0-1.1-.1c-.3-.1-.6-.2-.9-.4-.2-.2-.4-.4-.5-.6s-.2-.5-.2-.8c0-.5.2-.9.6-1.5.4-.5.9-1,1.5-1.3.6-.4,1.3-.5,2.1-.5s1.4.2,1.8.7c.4.5.6,1,.7,1.6s.1,1.3.1,2.1-.2,1.7-.6,2.3-.9,1.1-1.6,1.4c-.6.3-1.3.5-2,.5s-.9,0-1.3-.2h0ZM57.1,129.5c0,0,0,0,0-.2,0-.2,0-.5-.1-.8,0-.3-.2-.5-.5-.7-.3-.2-.6-.3-.9-.3s-.7,0-.9.3-.4.5-.4.8.2.6.5.8c.4.2.8.2,1.3.2s.7,0,.8,0h0Z"/>
  <path class="st3" d="M61.9,134.2c-.5-.2-.8-.4-1.1-.7-.3-.2-.4-.5-.4-.6s0-.3.3-.5c.2-.2.4-.3.7-.5s.4-.2.5-.2.2,0,.2.1c.2.3.5.5.8.7.4.2.7.3,1.1.3s.5,0,.6-.1c.1,0,.2-.3.2-.6,0-.5-.3-.9-.8-1.2-.5-.3-1.3-.4-2.4-.4s-.2,0-.2-.2l.3-4.2c0-.1,0-.2.2-.2h3.6c.4,0,.8,0,1.1,0,.3,0,.5,0,.6,0,.1,0,.2,0,.2.2s0,.4-.2.7c-.2.3-.4.6-.5.8-.2.2-.3.3-.5.3h-3.2v1.1c1.1,0,2.1.3,2.7.8.7.4,1,1.1,1,2.1s-.2,1-.5,1.4c-.3.4-.8.8-1.3,1-.6.2-1.1.4-1.7.4s-.9,0-1.4-.3h0Z"/>
  <path class="st3" d="M73.5,136.8c-1-.8-1.5-1.9-1.5-3.3s0-.6,0-.7c0-.2.2-.3.5-.5.3-.2.6-.3.9-.4.3-.1.6-.2.8-.2s.1,0,.1.2v.9c0,1.2.3,2.1,1.1,2.7.7.6,1.7,1,3.1,1s1.6-.2,2.1-.4c.6-.3.8-.7.8-1.3v-.2h-1.6c-1.1,0-2.1-.2-2.8-.7-.7-.5-1.1-1.1-1.1-2s.2-1.3.6-1.8c.4-.6,1-1,1.7-1.3.7-.3,1.4-.5,2.2-.5s1.3,0,1.9.3c.7.2,1.2.4,1.5.7.1,0,.2.1.2.2,0,.1-.1.3-.3.5-.2.2-.5.4-.7.6s-.5.3-.6.3,0,0-.2,0c-.5-.3-.9-.6-1.4-.7-.5-.2-.9-.2-1.3-.2s-.4,0-.6,0c-.2,0-.3,0-.4.2-.2.2-.4.5-.4,1s.3,1.2.9,1.5,1.4.5,2.4.5h1.7c.2,0,.4,0,.4.2,0,0,.1.3.1.5,0,.8-.2,1.6-.8,2.3s-1.2,1.2-2.1,1.6c-.9.4-1.9.6-3.1.6-1.7,0-3.1-.4-4.1-1.2h0ZM78.2,141.4c0,0-.2-.2-.3-.3-.1-.1-.2-.2-.4-.3-.1.2-.3.3-.6.5-.3.2-.5.2-.6.2s-.1,0-.2-.1c0,0-.2-.2-.3-.3-.1-.1-.2-.2-.4-.3,0,0-.1-.1-.1-.2,0-.1,0-.3.2-.4.2-.2.4-.3.6-.4.2-.1.4-.2.5-.2s.3,0,.5.2c.2.2.4.3.5.5.1-.2.3-.3.6-.5s.4-.2.5-.2c.2,0,.4.1.6.3.3.2.4.4.4.6s0,.3-.3.4c-.2.2-.4.3-.6.4-.2.1-.4.2-.5.2s0,0-.2-.1h0Z"/>
  <path class="st3" d="M84.9,134.4c-.1,0-.2,0-.2,0,0-.1,0-.3.3-.6.2-.2.4-.5.6-.6.2-.2.4-.3.6-.3h8.9c0-.9-.3-1.6-.8-1.9-.5-.4-1.3-.6-2.3-.6h-3.4c-.6,0-1,0-1.4-.1s-.5-.2-.7-.4c-.2-.2-.2-.5-.2-.9s.1-.3.4-.5c.3-.2.6-.4.9-.5.3-.2.6-.2.8-.2s.1,0,.1.1c0,.4,0,.7.2.8,0,.1.3.2.6.2h4c1.4,0,2.4.3,3.1.9.7.6,1,1.6,1,3.1s0,.2,0,.3c0,.3-.3.7-.7.9s-.9.4-1.5.4h-10.1Z"/>
  <path class="st3" d="M98.4,136.5c-.4-.1-.6-.2-.6-.3s0-.2.3-.5c.2-.2.4-.4.7-.6.3-.2.5-.3.6-.3s.2,0,.3,0c.2,0,.4,0,.6.1.9.2,1.8.3,2.5.3s.8,0,1.3-.1c.4,0,.7-.2.9-.4.2-.1.3-.3.3-.4h-2c-1,0-1.9-.2-2.6-.6-.7-.4-1-1.1-1-2s.2-1.3.6-1.9c.4-.6.9-1,1.6-1.3.7-.3,1.4-.5,2.1-.5s1.3.2,1.9.5c.6.3,1,.8,1.3,1.3.3.6.5,1.2.5,1.9v1.1h1c.3,0,.5,0,.6.2.1.1.2.3.2.6s0,.5-.2.6c-.1.1-.3.2-.6.2h-1.4c-.3.5-.8,1-1.4,1.4-.6.4-1.2.7-1.9.9-.7.2-1.5.2-2.4.2-1.3,0-2.4-.1-3.1-.4h0ZM102.7,132.4c.5.3,1.1.5,1.8.5h1c0-.9-.2-1.7-.7-2.3s-1-.9-1.6-.9-.8.1-1,.4c-.1.2-.2.5-.2.9,0,.6.2,1.1.7,1.4h0Z"/>
  <path class="st3" d="M108.1,134.2c-.1-.1-.2-.3-.2-.6s0-.5.2-.6c.1-.1.3-.2.6-.2h1.6c.3,0,.5,0,.6.2.1.1.2.3.2.6s0,.5-.2.6c-.1.1-.3.2-.6.2h-1.6c-.3,0-.5,0-.6-.2Z"/>
  <path class="st3" d="M109.7,134.2c-.1-.1-.2-.3-.2-.6s0-.5.2-.6c.1-.1.3-.2.6-.2h1.6c.3,0,.5,0,.6.2.1.1.2.3.2.6s0,.5-.2.6c-.1.1-.3.2-.6.2h-1.6c-.3,0-.5,0-.6-.2Z"/>
  <path class="st3" d="M111.3,134.2c-.1-.1-.2-.3-.2-.6s0-.5.2-.6c.1-.1.3-.2.6-.2h9.8c.3,0,.5,0,.6.2.1.1.2.3.2.6s0,.5-.2.6c-.1.1-.3.2-.6.2h-9.8c-.3,0-.5,0-.6-.2Z"/>
  <path class="st3" d="M112.9,134.2c-.1-.1-.2-.3-.2-.6s0-.5.2-.6c.1-.1,8.5-.2,8.8-.2h1.6c.3,0,.5,0,.6.2.1.1.2.3.2.6s0,.5-.2.6c-.1.1-.3.2-.6.2h-1.6c-.3,0-8.7,0-8.8-.2Z"/>
  <path class="st3" d="M122.7,134.2c-.1-.1-.2-.3-.2-.6s0-.5.2-.6c.1-.1.3-.2.6-.2h1.6c.3,0,.5,0,.6.2.1.1.2.3.2.6s0,.5-.2.6c-.1.1-.3.2-.6.2h-1.6c-.3,0-.5,0-.6-.2Z"/>
  <path class="st3" d="M124.3,134.2c-.1-.1-.2-.3-.2-.6s0-.5.2-.6c.1-.1.3-.2.6-.2h1.1c.7,0,1.2,0,1.6,0,.4,0,.8,0,1.1-.1l-.3-.3c-.5-.5-1-.9-1.5-1.3s-.9-.6-1.4-.8c0,0-.1,0-.1-.1s0-.1,0-.2c.2-.3.4-.6.6-.9.2-.3.4-.5.5-.7.3,0,.8-.1,1.4-.2.6,0,1.2,0,1.8,0,2.9,0,4.3.6,4.3,1.8s-.2.8-.6,1.2c-.4.4-.9.9-1.5,1.3.8.2,1.7.3,2.8.3s.5,0,.6.2c.1.1.2.3.2.6s0,.5-.2.6c-.1.1-.3.2-.6.2-1.1,0-2,0-2.8-.1-.8,0-1.4-.3-2.1-.6-.5.2-1,.4-1.5.5-.5.1-1,.2-1.5.2-.5,0-1.2,0-2.3,0s-.5,0-.6-.2h0ZM129.1,130.6c.4.3.8.6,1,.8.3.2.5.4.8.6.7-.4,1.1-.9,1.1-1.3,0-.4-.2-.6-.6-.7-.4-.1-1-.2-1.8-.2s-1.1,0-1.8,0c.4.2.8.5,1.2.8h0Z"/>
  <path class="st3" d="M146.2,134.1c-.3.2-.6.3-.9.3h-1.8c-.5,0-.9-.1-1.2-.3-.3.2-.7.3-1,.3h-1.8c-.5,0-.9-.1-1.2-.3-.3.2-.7.3-1,.3h-2.2c-.3,0-.5,0-.6-.2-.1-.1-.2-.3-.2-.6s0-.5.2-.6c.1-.1.3-.2.6-.2h1.8v-2.8c0-.2.1-.3.4-.5.3-.2.6-.4.9-.5.3-.2.6-.2.8-.2s.1,0,.1.1v3.3c0,.3.2.5.5.5.3,0,.7.1,1.3.1v-2.8c0-.2.1-.3.4-.5.3-.2.6-.4.9-.5.3-.2.6-.2.8-.2s.1,0,.1.1v3.3c0,.3.1.5.4.5.3,0,.7.1,1.3.1v-1.9c0-.3,0-.6,0-.9,0-.3-.1-.5-.3-.6,0,0,0,0,0,0,0,0,0-.1,0-.2.2-.2.5-.5,1-.7.4-.2.8-.3,1-.3s0,0,.1,0c.1.2.2.5.3.8,0,.3,0,.8,0,1.3v1.9c0,.3.1.4.4.5s.6.1,1.1.1.5,0,.6.2c.1.1.2.3.2.6s0,.5-.2.6c-.1.1-.3.2-.6.2h-.5c-.8,0-1.5,0-2-.3h0Z"/>
  <path class="st3" d="M150.4,134.4h-1.8c-.3,0-.5,0-.6-.2-.1-.1-.2-.3-.2-.6s0-.5.2-.6c.1-.1.3-.2.6-.2h1.4v-7.5c0-.1.1-.3.4-.5.3-.2.6-.4.9-.5.3-.2.6-.2.8-.2s.1,0,.1.1v8.1c0,.4,0,.7,0,.8,0,.3-.3.6-.6.9-.3.3-.7.4-1.2.4h0Z"/>
  <path class="st3" d="M154.5,134.4v-9c0-.1.1-.3.4-.5.3-.2.6-.4.9-.5.3-.2.6-.2.8-.2s.1,0,.1.1v9c0,.2-.1.3-.4.5s-.6.4-.9.5c-.3.2-.6.2-.8.2s-.1,0-.1-.1Z"/>
  <path class="st3" d="M163.6,136.8c-1-.8-1.5-1.9-1.5-3.3s0-.6,0-.7c0-.2.2-.3.5-.5.3-.2.6-.3.9-.4.3-.1.6-.2.8-.2s.1,0,.1.2v.9c0,1.2.3,2.1,1.1,2.7.7.6,1.7,1,3.1,1s1.6-.2,2.1-.4c.5-.3.8-.7.8-1.3v-.2c-1.1,0-1.9-.3-2.5-.6-.6-.4-.9-.9-.9-1.7,0-1.1.5-2,1.4-2.6s2.3-1,4.1-1l-.9,1.7c-.4,0-.9,0-1.4,0-.5,0-.9.1-1.1.2-.1.3-.2.5-.2.8,0,.5.3.9.8,1.2.5.3,1.2.4,2.1.4s.7,0,.8,0c0,.3,0,.5,0,.7,0,.8-.3,1.5-.8,2.1-.5.7-1.2,1.2-2.1,1.6-.9.4-1.9.6-3,.6-1.7,0-3.1-.4-4.1-1.2h0ZM168.6,141.4c0,0-.2-.2-.3-.3-.1-.1-.2-.2-.4-.3-.1.2-.3.3-.6.5-.3.2-.5.2-.6.2s-.1,0-.2-.1c0,0-.2-.2-.3-.3-.1-.1-.2-.2-.4-.3,0,0-.1-.1-.1-.2,0-.1,0-.3.2-.4.2-.2.4-.3.6-.4.2-.1.4-.2.4-.2s.3,0,.5.2c.2.2.4.3.5.5.1-.2.3-.3.6-.5s.4-.2.5-.2c.2,0,.4.1.6.3.3.2.4.4.4.6s0,.3-.3.4c-.2.2-.4.3-.6.4-.2.1-.4.2-.5.2s0,0-.2-.1h0Z"/>
  <path class="st3" d="M174.6,131.1v-.7c-.5,0-1-.2-1.2-.2-.3,0-.6,0-1,0l1.1-1.7c1,0,1.9,0,2.6.2,0,0,0,0,0,.1,0,.3,0,.6,0,1,0,.8.1,1.5.3,2.1.2.6.6.9,1.2.9s14,0,14.1.1c.1,0,.2.3.2.6s0,.6-.1.7-13.8.2-14.1.2h-.2c-1.9,0-2.9-1.1-2.9-3.4h0ZM173.8,127.6c0,0-.2-.2-.3-.3-.1-.1-.3-.3-.5-.4,0,0-.1-.1-.1-.2,0-.1,0-.3.3-.4.2-.2.4-.3.6-.5.2-.1.4-.2.5-.2.2,0,.4.1.7.4.3.2.5.5.5.6s0,.3-.3.5c-.2.2-.4.3-.7.5-.2.1-.4.2-.5.2s-.1,0-.2-.1h0Z"/>
  <path class="st3" d="M177.1,134.2c-.1-.1-.2-.3-.2-.6s0-.5.2-.6c.1-.1.3-.2.6-.2h14.6v-7.5c0-.1.1-.3.4-.5.3-.2.6-.4.9-.5.3-.2.6-.2.8-.2s.1,0,.1.1v4c0,.3,0,.4.1.5,0,0,.2.1.4.1h6c1.4,0,2.5.3,3.2.8.7.6,1.1,1.5,1.1,3s0,.4,0,.5c0,.3-.3.6-.6.9-.3.3-.7.4-1.2.4h-25.8c-.3,0-.5,0-.6-.2h0ZM194.6,132.8h8.5c0-.9-.3-1.6-.8-1.9-.5-.4-1.4-.6-2.6-.6h-5.2v2.5Z"/>
  <path class="st3" d="M206.5,136.5c-.4-.1-.6-.2-.6-.3s.1-.2.3-.5c.2-.2.4-.4.7-.6.3-.2.5-.3.6-.3s.2,0,.3,0c.2,0,.4,0,.6.1.9.2,1.8.3,2.5.3s.9,0,1.3-.1c.4,0,.7-.2.9-.4.2-.1.3-.3.3-.4h-2.1c-1,0-1.9-.2-2.6-.6-.7-.4-1-1.1-1-2s.2-1.3.6-1.9c.4-.6.9-1,1.6-1.3s1.4-.5,2.1-.5,1.3.2,1.9.5c.6.3,1,.8,1.3,1.3.3.6.5,1.2.5,1.9v1.1h1c.3,0,.5,0,.6.2.1.1.2.3.2.6s0,.5-.2.6c-.1.1-.3.2-.6.2h-1.4c-.3.5-.8,1-1.4,1.4-.6.4-1.2.7-1.9.9-.7.2-1.5.2-2.4.2-1.3,0-2.4-.1-3.1-.4h0ZM210.8,132.4c.5.3,1.1.5,1.8.5h1c0-.9-.2-1.7-.7-2.3s-1-.9-1.6-.9-.8.1-1,.4c-.1.2-.2.5-.2.9,0,.6.2,1.1.7,1.4h0Z"/>
  <path class="st3" d="M218.6,134.4h-1.8c-.3,0-.5,0-.6-.2-.1-.1-.2-.3-.2-.6s0-.5.2-.6c.1-.1.3-.2.6-.2h1.4v-7.5c0-.1.1-.3.4-.5.3-.2.6-.4.9-.5.3-.2.6-.2.8-.2s.1,0,.1.1v8.1c0,.4,0,.7,0,.8,0,.3-.3.6-.6.9-.3.3-.7.4-1.2.4h0Z"/>
  <path class="st3" d="M222.7,134.4v-9c0-.1.1-.3.4-.5.3-.2.6-.4.9-.5.3-.2.6-.2.8-.2s.1,0,.1.1v9c0,.2-.1.3-.4.5s-.6.4-.9.5c-.3.2-.6.2-.8.2s-.1,0-.1-.1Z"/>
  <path class="st3" d="M230.4,137.9c-.2-.2-.3-.4-.3-.7,0-.3,0-.7,0-1.2v-2.9c0-.6.1-1.1.3-1.6.2-.5.5-.9,1-1.3.7-.6,1.5-.9,2.6-1.2,1.1-.2,2.3-.3,3.8-.3s1.3.1,1.9.3c.6.2,1,.6,1.4,1s.5,1,.5,1.7-.2,1.2-.5,1.8c-.4.5-.8.9-1.5,1.2-.6.3-1.3.5-2,.5s-1.3-.1-1.9-.4c-.6-.2-1.1-.6-1.4-1.1-.4-.5-.5-1-.5-1.6s.2-1.3.6-1.9h-.5c-.5.2-.9.3-1.2.6-.2.2-.3.4-.4.6,0,.3,0,.7,0,1.2v2.5c0,.4,0,.8,0,.9,0,.2.1.3.2.4l.2.2s0,0,0,.1c0,0-.1.3-.4.5-.3.2-.6.4-.9.6s-.6.3-.8.3-.2,0-.3-.2h0ZM239.1,133.4c0,0,.2-.2.2-.4,0-.2,0-.4,0-.6,0-.6-.2-1.1-.7-1.5s-1.1-.7-1.8-.7-.5,0-.6.1c-.2.1-.3.4-.3.9s.1,1,.4,1.3c.3.3.6.6,1,.8.4.2.8.2,1.2.2s.3,0,.4-.1h0Z"/>
  <path class="st3" d="M242.3,136.5c-.4-.1-.6-.2-.6-.3s.1-.2.3-.5c.2-.2.4-.4.7-.6.3-.2.5-.3.6-.3s.2,0,.3,0c.2,0,.4,0,.6.1.9.2,1.8.3,2.5.3s.8,0,1.3-.1c.4,0,.7-.2.9-.4.2-.1.3-.3.3-.4h-2.1c-1,0-1.9-.2-2.6-.6-.7-.4-1-1.1-1-2s.2-1.3.6-1.9c.4-.6.9-1,1.6-1.3s1.4-.5,2.1-.5,1.3.2,1.9.5c.6.3,1,.8,1.3,1.3.3.6.5,1.2.5,1.9v1.1h1c.3,0,.5,0,.6.2.1.1.2.3.2.6s0,.5-.2.6c-.1.1-.3.2-.6.2h-1.4c-.4.5-.8,1-1.4,1.4-.6.4-1.2.7-1.9.9-.7.2-1.5.2-2.4.2-1.3,0-2.4-.1-3.1-.4h0ZM246.6,132.4c.4.3,1.1.5,1.8.5h1c0-.9-.2-1.7-.7-2.3-.4-.6-1-.9-1.6-.9s-.8.1-1,.4c-.1.2-.2.5-.2.9,0,.6.2,1.1.7,1.4h0Z"/>
  <path class="st3" d="M252,134.2c-.1-.1-.2-.3-.2-.6s0-.5.2-.6c.1-.1.3-.2.6-.2h20.8c.3,0,.5,0,.6.2.1.1.2.3.2.6s0,.5-.2.6c-.1.1-.3.2-.6.2h-20.8c-.3,0-.5,0-.6-.2Z"/>
  <path class="st3" d="M276.1,134.3h-.2c-.2,0-.5,0-.7,0h-1.8c-.3,0-19.6,0-19.8-.2-.1-.1-.2-.3-.2-.6s0-.5.2-.6c.1-.1,19.5-.2,19.8-.2h1.4v-1c0-.8-.1-1.4-.4-1.7,0,0,0,0,0,0,0,0,0-.1,0-.2.2-.2.5-.5,1-.8.5-.2.8-.4,1.1-.4s.1,0,.1,0c.1.2.2.5.3.9,0,.4,0,.9,0,1.5v1.2c0,.1,0,.2.1.3,0,0,.2,0,.4.1.2,0,.5,0,.8,0s.5,0,.6.2c.1.1.2.3.2.6s0,.5-.2.6c-.1.1-.3.2-.6.2-1.1,0-1.8,0-2.3,0h0ZM276.3,137.9c0,0-.2-.2-.3-.3-.1-.1-.2-.2-.4-.3-.1.2-.3.3-.6.5-.3.2-.5.2-.6.2s-.1,0-.2-.1c0,0-.2-.2-.3-.3-.1-.1-.2-.2-.4-.3,0,0-.1-.1-.1-.2,0-.1,0-.3.2-.4.2-.2.4-.3.6-.4.2-.1.4-.2.4-.2s.3,0,.5.2c.2.2.4.3.5.5.1-.2.3-.3.6-.5s.4-.2.5-.2c.1,0,.4.1.6.3.3.2.4.4.4.6s0,.3-.3.4c-.2.2-.4.3-.6.4-.2.1-.4.2-.5.2s0,0-.2-.1h0Z"/>
  <path class="st3" d="M280.2,134.4h-1.8c-.3,0-.5,0-.6-.2-.1-.1-.2-.3-.2-.6s0-.5.2-.6c.1-.1.3-.2.6-.2h1.4v-7.5c0-.1.1-.3.4-.5.3-.2.6-.4.9-.5.3-.2.6-.2.8-.2s.1,0,.1.1v8.1c0,.4,0,.7,0,.8,0,.3-.3.6-.6.9-.3.3-.7.4-1.1.4h0Z"/>
  <path class="st3" d="M284.3,134.4v-9c0-.1.1-.3.4-.5.3-.2.6-.4.9-.5.3-.2.6-.2.8-.2s.1,0,.1.1v9c0,.2-.1.3-.4.5-.3.2-.6.4-.9.5s-.6.2-.8.2-.1,0-.1-.1Z"/>
  <path class="st3" d="M55.2,157.5c-.3,0-.5,0-.8,0-.2,0-.4-.2-.6-.3-.1-.1-.2-.2-.2-.3,0-.1,0-.2.1-.4,0-.1.2-.3.3-.3.1-.1.2-.2.3-.2s0,0,.1,0c.4.3.8.4,1.2.4s.3,0,.4-.1c0,0,.1-.2.1-.4s0-.3-.2-.4c-.1,0-.4-.2-.8-.2-.5,0-.9-.2-1.1-.4s-.4-.5-.4-1,0-.6.3-.9c.2-.3.4-.5.7-.6.3-.2.6-.2,1-.2s.5,0,.7.1c.2,0,.4.2.6.3s.2.2.2.2c0,.1,0,.2-.1.3,0,.1-.2.2-.3.3-.1,0-.2.1-.3.1s0,0-.1,0c-.3-.3-.7-.4-1.1-.4s-.2,0-.3,0c0,0-.1.2-.1.4s0,.3.2.4c.1,0,.4.2.8.2.5,0,.9.2,1.1.4.3.2.4.5.4,1s0,.6-.3.9c-.2.3-.4.5-.8.6-.3.2-.7.2-1.1.2ZM65,157.5c0,0-.1,0-.1,0s0-.1,0-.1c.2-.8.5-1.6.9-2.5.4-.9.7-1.7,1.1-2.4,0,0,.2,0,.4-.1.2,0,.5,0,.6,0s.1,0,.1.1c.2.6.5,1.3.8,2.2.3.8.5,1.6.8,2.2,0,.1,0,.2,0,.2,0,0-.2.2-.5.3-.3.1-.5.2-.6.2s0,0-.1-.1l-.4-1.3h-1.6c-.1.5-.2.8-.2,1.1,0,.1-.2.2-.5.3-.3,0-.5.1-.7.1ZM67.8,155.1c0-.3-.1-.4-.2-.5l-.4-1.1c-.2.5-.4,1.1-.6,1.6h1.1ZM79.3,157.5c-.7,0-1.1-.2-1.4-.7-.2-.5-.4-1.1-.4-1.8v-2.1c0,0,0-.2.2-.3.2-.1.3-.2.5-.3.2,0,.3-.1.4-.1s0,0,0,0v2.1c0,.5,0,.8,0,1.1,0,.3.1.5.3.7.2.2.4.3.7.3s.3,0,.3-.1c0,0,0-.2.1-.5,0-.3,0-.7,0-1.2v-1.8c0,0,0-.2.2-.3.2-.1.3-.2.5-.3.2,0,.3-.1.4-.1s0,0,0,0v1.8c0,.8,0,1.5-.3,2-.2.5-.4.8-.7,1-.3.2-.7.3-1.3.3ZM91.7,157.5c-.5,0-1,0-1.5-.1,0,0,0,0,0,0,0,0,0,0,0,0v-4.9c0,0,0,0,.1,0,.7,0,1.4-.1,2.1-.1s1,.2,1.3.5c.3.3.5.8.5,1.4,0,1.2-.2,2.1-.6,2.6-.4.5-1,.8-1.8.8ZM92.2,156.5c.2,0,.4,0,.4-.1,0,0,.1-.2.2-.5,0-.3,0-.6,0-1.1s0-.9-.3-1.2c-.2-.2-.4-.4-.7-.4s-.4,0-.6,0v3c.1,0,.2,0,.4.1.2,0,.3,0,.5,0ZM102.6,157.5c0,0,0,0,0,0v-4.5c0,0,0-.2.2-.3.2-.1.3-.2.5-.3.2,0,.3-.1.4-.1s0,0,0,0v4.5c0,0,0,.2-.2.3-.1.1-.3.2-.5.3-.2,0-.3.1-.4.1ZM121.7,157.5s0,0,0,0v-4.6c0,0,0-.1.2-.2.1,0,.3-.2.4-.3.2,0,.3-.1.3-.1s0,0,0,0l2,3.1v-2.7c0,0,0-.1.2-.2.1,0,.3-.2.4-.2.2,0,.3,0,.3,0s0,0,0,0v4.6c0,0,0,.1-.2.2-.1,0-.3.2-.5.3-.2,0-.3.1-.3.1s0,0,0,0l-2-3.1v2.7c0,0,0,.1-.2.2-.1,0-.3.2-.4.2-.2,0-.3,0-.3,0ZM133.7,157.5c0,0-.1,0-.1,0s0-.1,0-.1c.2-.8.5-1.6.9-2.5.4-.9.7-1.7,1.1-2.4,0,0,.2,0,.4-.1.2,0,.5,0,.6,0s.1,0,.1.1c.2.6.5,1.3.8,2.2.3.8.5,1.6.8,2.2,0,.1,0,.2,0,.2,0,0-.2.2-.5.3-.3.1-.5.2-.6.2s0,0-.1-.1l-.4-1.3h-1.6c-.1.5-.2.8-.2,1.1,0,.1-.2.2-.5.3-.3,0-.5.1-.7.1ZM136.5,155.1c0-.3-.1-.4-.2-.5l-.4-1.1c-.2.5-.4,1.1-.6,1.6h1.1ZM147.2,157.5c0,0,0,0,0,0v-4.1h-.5c-.2,0-.3,0-.5,0-.1,0-.3,0-.3,0,0,0,0,0,0-.1s0-.2.1-.4c.2-.4.4-.6.5-.6h3.3c0,0,.1,0,.1.1s0,.2,0,.3c0,.2-.1.3-.2.4,0,0-.1.1-.2.1s-.1,0-.2,0c0,0-.2,0-.4,0h-.3v3.5c0,0,0,.2-.2.3-.1.1-.3.2-.5.3-.2,0-.3.1-.4.1ZM157.8,157.5c0,0,0,0,0,0v-4.5c0,0,0-.2.2-.3.2-.1.3-.2.5-.3s.3-.1.4-.1,0,0,0,0v4.5c0,0,0,.2-.2.3-.1.1-.3.2-.5.3-.2,0-.3.1-.4.1ZM169.2,157.5c-1.2,0-1.8-.8-1.8-2.4s.2-1.7.6-2.2c.4-.4,1-.7,1.7-.7s1,.2,1.3.5c.3.3.5.8.5,1.4,0,1.2-.2,2.1-.6,2.6-.4.5-1,.8-1.7.8ZM169.7,156.5c.2,0,.3,0,.3-.1,0,0,0-.2.2-.5,0-.3,0-.7,0-1.1s0-.9-.3-1.2c-.2-.3-.4-.4-.7-.4s-.2,0-.3,0c0,0-.1,0-.2,0,0,0,0,.2-.1.4,0,.2,0,.5,0,.8,0,.7,0,1.2.2,1.5.1.4.4.6.9.6ZM180,157.5s0,0,0,0v-4.6c0,0,0-.1.2-.2.1,0,.3-.2.4-.3.2,0,.3-.1.3-.1s0,0,0,0l2,3.1v-2.7c0,0,0-.1.2-.2.1,0,.3-.2.4-.2.2,0,.3,0,.3,0s0,0,0,0v4.6c0,0,0,.1-.2.2-.1,0-.3.2-.5.3-.2,0-.3.1-.3.1s0,0,0,0l-2-3.1v2.7c0,0,0,.1-.2.2-.1,0-.3.2-.4.2-.2,0-.3,0-.3,0ZM192,157.5c0,0-.1,0-.1,0s0-.1,0-.1c.2-.8.5-1.6.9-2.5.4-.9.7-1.7,1.1-2.4,0,0,.2,0,.4-.1.2,0,.5,0,.6,0s.1,0,.1.1c.2.6.5,1.3.8,2.2.3.8.5,1.6.8,2.2,0,.1,0,.2,0,.2,0,0-.2.2-.5.3-.3.1-.5.2-.6.2s0,0-.1-.1l-.4-1.3h-1.6c-.1.5-.2.8-.2,1.1,0,.1-.2.2-.5.3-.3,0-.5.1-.7.1ZM194.8,155.1c0-.3-.1-.4-.2-.5l-.4-1.1c-.2.5-.4,1.1-.6,1.6h1.1ZM204.7,157.4c0,0,0,0,0,0v-4.5c0,0,0-.2.2-.3.2-.1.3-.2.5-.3.2,0,.3-.1.4-.1s0,0,0,0v4.1h.8c.2,0,.5,0,.6,0,.2,0,.3,0,.3,0s0,0,0,.1,0,.2-.1.4c-.2.4-.4.6-.5.6h-2.3ZM226.6,157.5c-.5,0-1,0-1.5-.1,0,0,0,0,0,0,0,0,0,0,0,0v-4.9c0,0,0,0,.1,0,.7,0,1.4-.1,2.1-.1s1,.2,1.3.5c.3.3.5.8.5,1.4,0,1.2-.2,2.1-.6,2.6-.4.5-1,.8-1.8.8ZM227.1,156.5c.2,0,.4,0,.4-.1,0,0,.1-.2.2-.5,0-.3,0-.6,0-1.1s0-.9-.3-1.2c-.2-.2-.4-.4-.7-.4s-.4,0-.6,0v3c.1,0,.2,0,.4.1.2,0,.3,0,.5,0ZM236.9,157.5c0,0-.1,0-.1,0s0-.1,0-.1c.2-.8.5-1.6.9-2.5.4-.9.7-1.7,1.1-2.4,0,0,.2,0,.4-.1.2,0,.5,0,.6,0s.1,0,.1.1c.2.6.5,1.3.8,2.2.3.8.5,1.6.8,2.2,0,.1,0,.2,0,.2,0,0-.2.2-.5.3-.3.1-.5.2-.6.2s0,0-.1-.1l-.4-1.3h-1.6c-.1.5-.2.8-.2,1.1,0,.1-.2.2-.5.3-.3,0-.5.1-.7.1ZM239.7,155.1c0-.3-.1-.4-.2-.5l-.4-1.1c-.2.5-.4,1.1-.6,1.6h1.1ZM250.5,157.5c0,0,0,0,0,0v-2.2c-.6-.8-1.2-1.6-1.6-2.3,0,0,0-.1,0-.2,0,0,0-.1.2-.2.1,0,.3-.2.5-.3.2,0,.3-.1.4-.1s0,0,0,0c0,0,0,0,0,0,.1.3.3.6.6,1,.3.4.5.8.7,1.1.5-.9.7-1.5.8-2.1,0,0,0-.1,0-.1,0,0,.1,0,.2,0,.3,0,.5,0,.7,0,.2,0,.3,0,.3.1s0,0,0,.1c0,0,0,.1,0,.2-.1.2-.3.6-.7,1.2-.3.6-.6,1-.9,1.3v2c0,0-.1.2-.4.2-.3,0-.5,0-.7,0ZM271.7,157.5c-.3,0-.5,0-.8-.1-.3,0-.5-.2-.7-.4-.1,0-.2-.2-.2-.2s0-.2.2-.3c.1-.1.3-.2.4-.3.2-.1.3-.2.4-.2s0,0,.1,0c.4.3.8.5,1.2.5s.4,0,.5-.1c0,0,.1-.4.2-.8,0-.2,0-.4,0-.6-.1.1-.3.2-.4.3-.1,0-.3.1-.4.2-.2,0-.3,0-.5,0s-.4,0-.6,0c-.2,0-.4-.2-.5-.3-.1-.1-.2-.2-.3-.4s-.1-.3-.1-.5c0-.3.1-.6.3-.9.2-.3.5-.6.9-.8.4-.2.8-.3,1.2-.3s.8.1,1.1.4c.2.3.4.6.4,1,0,.4,0,.8,0,1.3s-.1,1-.4,1.4c-.2.4-.5.7-.9.9-.4.2-.8.3-1.2.3ZM272.4,154.5c.2,0,.4,0,.5,0,0,0,0,0,0-.1,0-.2,0-.3,0-.5,0-.2-.1-.3-.3-.4-.2-.1-.3-.2-.5-.2s-.4,0-.6.2c-.1.1-.2.3-.2.5s.1.4.3.5c.2,0,.5.1.8.1ZM283.8,157.5c-.3,0-.6,0-.8-.2-.3-.1-.5-.2-.6-.4-.2-.2-.2-.3-.2-.4s0-.2.2-.3c.1-.1.3-.2.4-.3.1,0,.2-.1.3-.1s0,0,.1,0c.1.2.3.3.5.5.2.1.4.2.7.2s.3,0,.4,0c0,0,0-.2,0-.4,0-.3-.2-.6-.5-.7-.3-.2-.8-.3-1.4-.3s0,0,0,0l.2-2.6c0,0,0-.1.1-.1h2.1c.2,0,.5,0,.6,0,.2,0,.3,0,.4,0,0,0,0,0,0,.1s0,.2-.1.4c-.1.2-.2.4-.3.5,0,.1-.2.2-.3.2h-1.9v.7c.7,0,1.2.2,1.6.5.4.3.6.7.6,1.3s-.1.6-.3.9c-.2.3-.5.5-.8.6-.3.2-.7.2-1,.2Z"/>
</svg>