<?xml version="1.0" encoding="utf-8"?>
<!-- Generator: Adobe Illustrator 26.0.1, SVG Export Plug-In . SVG Version: 6.00 Build 0)  -->
<svg version="1.1" id="Layer_1" xmlns="http://www.w3.org/2000/svg" xmlns:xlink="http://www.w3.org/1999/xlink" x="0px" y="0px"
	 viewBox="0 0 1920 1080" style="enable-background:new 0 0 1920 1080;" xml:space="preserve">
<style type="text/css">
	.st0{fill:#006A5D;}
	.st1{clip-path:url(#SVGID_00000126292030155113165720000017322584039861749438_);}
	.st2{clip-path:url(#SVGID_00000054988937817626331620000008305590715363987883_);}
	.st3{clip-path:url(#SVGID_00000160173927765530707120000004591015395129379754_);}
	.st4{clip-path:url(#SVGID_00000065771496707446318590000003457653360790862248_);}
	.st5{clip-path:url(#SVGID_00000115507356038234090020000010933220038043847079_);}
	.st6{fill:url(#SVGID_00000161632285959356956180000002730676486017020555_);}
</style>
<g id="surface1">
	<path class="st0" d="M480.3,713.09L430,626.48v86.61h-10.01V606.51h9.97l50.74,87.6v-87.6h10v106.58H480.3z"/>
	<path class="st0" d="M511.87,639.78c0-23.9,15.2-35.79,36.91-35.79c15.18,0,25.84,6.32,31.2,16.67l-7.47,3.71
		c-4.34-7.36-12.61-11.39-23.07-11.39c-16.19,0-27.55,8.66-27.55,26.81v39.12c0,18.17,11.36,26.86,27.55,26.86
		c10.46,0,18.73-4.11,23.07-11.44l7.47,3.69c-5.36,10.37-16.02,16.74-31.2,16.74c-21.71,0-36.91-11.92-36.91-35.86V639.78z"/>
	<path class="st0" d="M635.21,655.26c12.87,0,19.91-7.07,19.91-20.57c0-10.5-6.9-19.15-19.62-19.15h-28.36v39.72H635.21z
		 M607.14,704.11h30.82c12.91,0,19.92-7.04,19.92-20.58c0-10.47-6.9-19.15-19.67-19.15h-31.07V704.11z M637.42,606.53
		c17.8,0,27.7,12.47,27.7,27.14c0,13.07-4.94,21.78-14.14,25.77c10.99,3.68,16.88,13.56,16.88,24.88
		c0,18.63-10.06,28.77-27.93,28.77h-42.85V606.53H637.42z"/>
	<path class="st0" d="M828.23,706.45c-6.94,0-12.46-1.32-16.25-3.98c-4.47-3.09-6.72-7.97-6.72-14.57c0-3.58,0.65-6.64,2-9.17
		c1.21-2.31,3.03-4.22,5.33-5.66c4.12-2.48,9.83-3.72,17.57-3.72c5.99,0,12.34,0.76,16.62,1.31v31.37
		C841.53,704.86,834.75,706.45,828.23,706.45 M824.48,635.21c-9.8,0-17.71,2.43-23.55,7.25l-0.01,0.01l5.04,5.29v0.03l0.03-0.03
		c4.67-2.93,10.6-4.43,17.55-4.43c9.15,0,15.41,2.05,19.06,6.28c3.52,4.05,4.08,9.58,4.17,14.01c-7.49-1.06-13.15-1.48-17.9-1.48
		c-9.7,0-17.3,1.72-22.61,5.14c-6.66,4.22-10.04,11.18-10.04,20.62c0,9.15,3.03,16.03,9.15,20.47c5.11,3.74,12.28,5.79,21.47,6.01
		c7.86,0,15.5-1.87,21.59-5.24l0.2,3.79v0.1h7.82v-45.88c0-7.31-0.65-15.6-5.23-21.88C846.3,638.52,837.54,635.21,824.48,635.21"/>
	<g>
		<defs>
			<rect id="SVGID_1_" x="877.12" y="634.89" width="59.96" height="108.74"/>
		</defs>
		<clipPath id="SVGID_00000164484581608592930840000008732000935661406092_">
			<use xlink:href="#SVGID_1_"  style="overflow:visible;"/>
		</clipPath>
		<g style="clip-path:url(#SVGID_00000164484581608592930840000008732000935661406092_);">
			<path class="st0" d="M887.11,647.59c5.4-2.69,12.2-4.21,18.73-4.21c6.16,0,11.3,1.47,14.91,4.21c4.01,3.06,6.08,7.64,6.08,13.52
				v26.47c0,6.67-1.95,11.65-5.81,14.8c-3.37,2.72-8.27,4.11-14.47,4.11c-7.93,0-15.4-2.08-19.45-3.91V647.59z M927.38,641.2
				c-5.07-3.72-12.04-5.67-20.3-5.67c-7.91,0-15.61,1.8-21.62,5.19l-0.17-3.89v-0.03h-7.82v106.84h9.64v-33.59
				c6.48,2.7,14.28,4.24,20.99,4.24c8.01,0,14.74-1.94,19.58-5.59c5.79-4.47,8.79-11.38,8.79-20.54v-26.91
				C936.47,652.4,933.43,645.64,927.38,641.2"/>
		</g>
	</g>
	<path class="st0" d="M956.2,712.92h9.64v-76.27h-9.64V712.92z"/>
	<path class="st0" d="M961.12,604.99c-3.29,0-5.51,2.16-5.51,5.29c0,3.18,2.31,5.49,5.51,5.49c1.58,0,2.97-0.56,3.92-1.62
		c0.92-0.98,1.37-2.31,1.37-3.87C966.41,607.11,964.27,604.99,961.12,604.99"/>
	<path class="st0" d="M1020.57,706.39c-3.19,0-6.07-0.36-8.62-1.08c-4.73-1.44-8.35-3.99-10.74-7.73
		c-2.37-3.81-3.61-8.81-3.61-14.87v-37.94h20.11v-8.1H997.6v-18.43h-9.65v65.88c0,8.4,2.18,15.26,6.58,20.36
		c3.92,4.58,9.41,7.63,16.36,9.04c3.03,0.64,6.28,0.96,9.64,0.96h2.04v-8.13h-0.07C1021.85,706.39,1021.19,706.39,1020.57,706.39"/>
	<path class="st0" d="M1064.5,706.45c-6.94,0-12.46-1.32-16.25-3.98c-4.42-3.09-6.75-7.97-6.75-14.57c0-3.58,0.7-6.64,2.01-9.17
		c1.21-2.31,3.04-4.22,5.39-5.66c4.07-2.48,9.86-3.72,17.53-3.72c5.99,0,12.34,0.76,16.65,1.31v31.37
		C1077.83,704.86,1071.02,706.45,1064.5,706.45 M1060.75,635.21c-9.78,0-17.7,2.43-23.55,7.25l-0.04,0.01l5.09,5.29v0.03l0.01-0.03
		c4.71-2.93,10.61-4.43,17.51-4.43c9.18,0,15.46,2.05,19.11,6.28c3.52,4.05,4.08,9.58,4.2,14.01c-7.52-1.06-13.21-1.48-17.93-1.48
		c-9.7,0-17.28,1.72-22.61,5.14c-6.64,4.22-10.02,11.18-10.02,20.62c0,9.15,3.08,16.03,9.12,20.47c5.11,3.74,12.34,5.79,21.51,6.01
		c7.83,0,15.47-1.87,21.56-5.24l0.2,3.79v0.1h7.79v-45.88c0-7.31-0.62-15.6-5.16-21.88
		C1082.57,638.52,1073.83,635.21,1060.75,635.21"/>
	<path class="st0" d="M1113.75,713.09h9.61V606.57h-9.61V713.09z"/>
	<path class="st0" d="M714.23,639.78c0-23.9,15.2-35.79,36.89-35.79c15.22,0,25.86,6.32,31.22,16.67l-7.45,3.71
		c-4.36-7.36-12.57-11.39-23.06-11.39c-16.19,0-27.58,8.66-27.58,26.81v39.12c0,18.17,11.39,26.86,27.58,26.86
		c10.49,0,18.7-4.11,23.06-11.44l7.45,3.69c-5.36,10.37-16,16.74-31.22,16.74c-21.69,0-36.89-11.92-36.89-35.86V639.78z"/>
	<path class="st0" d="M984.07,517.06h-5.85c-11.41-0.89-20.18-5.98-20.18-19.31c0-4.57,0.96-9.1,2.53-11.98
		c3.71-6.22,10-9.21,17.58-9.21c1.74,0,3.43,0.2,5.11,0.55c0.26,0.04,0.53,0.19,0.81,0.24V517.06z M982.93,437.09
		c-15.8,0-26.91,6.62-32.5,17.47l7.83,3.88c4.47-7.66,13.06-11.95,23.95-11.95c16.78,0,28.66,9.12,28.66,28.19v32.39
		c0,5.48-4.47,9.99-10.03,9.99h-6.71v-44.95c-3.02-1.61-6.35-2.8-10.07-3.42c-1.91-0.31-3.82-0.55-5.92-0.55
		c-4.5,0-8.66,0.75-12.41,2.03c-1.46,0.52-2.85,1.16-4.18,1.91c-0.33,0.16-0.69,0.31-0.99,0.46v0.09
		c-7.17,4.52-11.87,12.91-11.87,24.49c0,0.23-0.03,0.4-0.03,0.63c0,8.81,2.7,15,7.15,19.31H939.3c-7.66,0-13.85-6.19-13.85-13.86
		v-89.59l-10.42,4.33v85.26c0,7.67-3.53,13.86-11.18,13.86c-4.63,0-7.67-5.24-10.4-10.08l-30.75-61.42l-4.29-8.46
		c0,0-5.02,2.96-10.39,10.53c-3.78,5.27-7.01,12.64-7.8,17.24c-0.96,5.86-2.77,13.88,6.09,30.66l12.43,21.53h-42.16
		c-12.74-0.2-17.12-9.45-17.12-21.28c0-7.99,2.38-15.11,6.24-21.58l-5.92-4.14c-5.26,8.3-8.29,17.9-8.29,28.21
		c0,15.57,7.97,27.22,25.89,27.22h56.7l-17.53-29.91c0,0-4.25-8.81-5.75-13.91c-1.02-3.39-1.96-7.25-1.8-11.09
		c0.4-9.93,6.58-16.85,6.58-16.85l24.47,48.1c7.47,14.32,10.57,23.66,23.8,23.66c6.62,0,12.63-3.49,16.62-8.85
		c4.34,5.36,10.89,8.85,18.34,8.85h65.25c9.51,0,17.21-7.7,17.21-17.23v-33.6C1021.29,449.56,1005.5,437.09,982.93,437.09
		 M1080.89,417.93v85.26c0,7.67-6.21,13.86-13.86,13.86h-7.71v-79.96l-10.4,4.33v75.64h-7.99l-3.33,8.45h29.95
		c13.12,0,23.75-10.66,23.75-23.77l0.03-88.12L1080.89,417.93z M1047.58,427.4l-2.28-5.57c-1.24-2.77,0.11-5.5,2.86-6.59
		c0,0,2.8-1.54,5.82,0.6l0.98-3.45c-2.59-1.91-6.03-2.21-9.17-0.95c-5.43,2.25-7.41,6.94-5.26,12.32l2.35,5.53l-3.16,1.37
		l-2.13,5.29l21.72-8.98v-4.44L1047.58,427.4z M825.37,537.65c-3.45,0-6.35,2.26-6.35,6.19c0,3.71,2.67,6.36,6.35,6.36
		c3.98,0,6.21-2.9,6.21-6.36C831.58,540.11,829.09,537.65,825.37,537.65 M845.67,537.65c-3.43,0-6.37,2.26-6.37,6.19
		c0,3.71,2.63,6.36,6.37,6.36c3.95,0,6.21-2.9,6.21-6.36C851.87,540.11,849.39,537.65,845.67,537.65 M1112.97,525.5V417.93
		l10.4-4.33v111.9H1112.97z"/>
	<g>
		<defs>
			<rect id="SVGID_00000133522313355961286320000003937608477291298229_" x="328.66" y="413.27" width="424.74" height="137.38"/>
		</defs>
		<clipPath id="SVGID_00000054962614498358729790000017738436183562193055_">
			<use xlink:href="#SVGID_00000133522313355961286320000003937608477291298229_"  style="overflow:visible;"/>
		</clipPath>
		<g style="clip-path:url(#SVGID_00000054962614498358729790000017738436183562193055_);">
			<path class="st0" d="M335.47,517.56c0,15.65,10.92,24.18,26.05,24.18c5.75,0,25.57-4.25,25.57-25.38v-98.39l10.53-4.48v102.56
				c0,34.36-36.1,34.16-36.1,34.16c-17.91,0-32.86-10.26-32.86-32.64H335.47z M596.58,501.79c0,13.1,10.62,23.76,23.78,23.76h107.43
				c15.8,0,25.18-8.38,25.18-22.38v-6.41c0-14.02-9.38-22.37-25.18-22.37h-75.05c-10.31,0-11.05-9.65-4.44-16.39
				c19.93-20.28,21.76-22.51,21.76-22.51l1.17-13.32c0,0-15.23,15.13-25.53,25.1c-3.47,3.39-9.09,8.52-10.67,14.31
				c-2.93,10.59,1.68,21.19,14.48,21.19l77.29,0.07c7.24,0,15.86,2.4,15.86,13.98v6.29c0,11.58-8.62,13.96-15.86,13.96H620.83
				c-7.67,0-13.85-6.16-13.85-13.83l-0.06-89.57l-10.39,4.3L596.58,501.79z M454.81,418.44c-3.45,0-6.35,2.24-6.35,6.19
				c0,3.71,2.63,6.36,6.35,6.36c3.96,0,6.19-2.89,6.19-6.36C461,420.9,458.51,418.44,454.81,418.44 M475.1,418.44
				c-3.45,0-6.33,2.24-6.33,6.19c0,3.71,2.61,6.36,6.33,6.36c3.97,0,6.22-2.89,6.22-6.36C481.32,420.9,478.83,418.44,475.1,418.44
				 M551.26,537.66c-3.46,0-6.39,2.24-6.39,6.18c0,3.71,2.66,6.36,6.39,6.36c3.94,0,6.19-2.9,6.19-6.36
				C557.45,540.1,554.92,537.66,551.26,537.66 M490.91,537.66c-3.45,0-6.39,2.24-6.39,6.18c0,3.71,2.67,6.36,6.39,6.36
				c3.94,0,6.19-2.9,6.19-6.36C497.1,540.1,494.6,537.66,490.91,537.66 M511.18,537.66c-3.43,0-6.35,2.24-6.35,6.18
				c0,3.71,2.66,6.36,6.35,6.36c3.98,0,6.25-2.9,6.25-6.36C517.43,540.1,514.88,537.66,511.18,537.66 M487.7,523.91
				c4.14,1.05,8.22,1.6,12.28,1.6c5.44,0,9.8-0.6,13.16-1.84c3.36-1.22,6.09-2.9,8.23-5.03c4.37,2.44,8.59,4.21,12.77,5.27
				c4.12,1.05,8.25,1.6,12.31,1.6h3.96c3.3,0,6.38-0.6,9.27-1.84c2.86-1.22,5.37-2.9,7.49-5.03c2.15-2.13,3.86-4.61,5.11-7.53
				c1.29-2.83,1.9-5.95,1.9-9.22v-48.04h-10.37v49.47c0,3.84-1.32,7.06-4.02,9.71c-2.73,2.66-5.99,4.01-9.84,4.01h-4.93
				c-3.43,0-6.9-0.4-10.31-1.17c-3.49-0.84-6.56-1.89-9.34-3.32c0.96-2.24,1.58-4.55,1.91-7.08c0.31-2.5,0.49-5.04,0.49-7.57v-44.06
				h-10.34v48.99c0,1.81-0.26,3.55-0.69,5.17c-0.43,1.64-1.26,3.16-2.51,4.55c-1.32,1.42-3.07,2.47-5.34,3.32
				c-2.3,0.76-5.26,1.17-8.89,1.17h-1.44c-3.42,0-6.82-0.4-10.29-1.17c-3.49-0.84-6.59-1.89-9.37-3.32
				c0.96-2.24,1.61-4.55,1.94-7.08c0.3-2.5,0.49-5.04,0.49-7.57v-44.06h-10.4v48.99c0,1.81-0.19,3.55-0.62,5.17
				c-0.44,1.64-1.29,3.16-2.56,4.55c-1.31,1.42-3.03,2.47-5.35,3.32c-2.28,0.76-5.26,1.17-8.86,1.17h-9.34
				c-3.81,0-7.08-1.35-9.81-4.06c-2.73-2.7-4.06-5.96-4.06-9.81v-89.5l-10.37,4.3v83.75c0,3.31,0.6,6.39,1.84,9.29
				c1.22,2.83,2.92,5.37,5.08,7.54c2.19,2.16,4.73,3.89,7.6,5.11c2.86,1.24,5.95,1.84,9.25,1.84h9.81c5.43,0,9.78-0.6,13.16-1.84
				c3.36-1.22,6.1-2.9,8.22-5.03C479.31,521.08,483.54,522.85,487.7,523.91"/>
		</g>
	</g>
	<g>
		<defs>
			<rect id="SVGID_00000109724998671367409550000008513900521126683024_" x="1212.6" y="336.36" width="378.43" height="333.44"/>
		</defs>
		<clipPath id="SVGID_00000101066537927753041130000014685546177066308747_">
			<use xlink:href="#SVGID_00000109724998671367409550000008513900521126683024_"  style="overflow:visible;"/>
		</clipPath>
		<g style="clip-path:url(#SVGID_00000101066537927753041130000014685546177066308747_);">
			<path class="st0" d="M1444.01,514.99c19.84,30.6,34.76,65.54,43.28,104.55c15.69-47.67,47.25-86.15,94.62-114.64l9.13-5.57
				v-93.83C1557.07,420.99,1492.98,455.64,1444.01,514.99 M1420.75,513.11c-32.58-45.9-79.1-82.82-138.7-108.04v105.78
				c42.91,28.69,71.56,65.97,85.88,111.26c0,0,6.91,18.16,9.71,47.08h97.04c-3.63-51.4-18.01-98.13-42.54-138.73
				C1428.55,524.54,1424.7,518.85,1420.75,513.11 M1588.17,336.37h-371.97c-1.6,0-2.9,1.28-2.9,2.8v330.01h144.55
				c-7.36-69.45-43.77-115.6-94.12-146.73c-0.81-0.53-1.26-1.25-1.26-2.21V387.91c0-1.32,1.11-2.46,2.51-2.46h326.08v-46.29
				C1591.04,337.64,1589.76,336.37,1588.17,336.37 M1496.79,669.18h94.26v-146.9C1540.5,553.12,1504.1,599.52,1496.79,669.18
				 M1432.54,498.33c32.6-38.53,73.18-69.68,115.67-93.26h-222.25C1367.05,428.49,1403.83,459.62,1432.54,498.33"/>
		</g>
	</g>
	<g>
		<defs>
			<rect id="SVGID_00000060735392944863696750000012797002092515321746_" x="1212.6" y="385.18" width="378.74" height="329.41"/>
		</defs>
		<clipPath id="SVGID_00000173854662840610107630000015139788035758783906_">
			<use xlink:href="#SVGID_00000060735392944863696750000012797002092515321746_"  style="overflow:visible;"/>
		</clipPath>
		<g style="clip-path:url(#SVGID_00000173854662840610107630000015139788035758783906_);">
			<g>
				<defs>
					<path id="SVGID_00000069377027610983889280000010483124737593901739_" d="M1264.91,385.44c-1.38,0.03-2.45,1.15-2.45,2.45
						v132.32c0,0.99,0.46,1.71,1.26,2.23c50.35,31.15,86.77,77.3,94.11,146.75h-144.54v42.08c0,1.52,1.28,2.83,2.9,2.83h371.97
						c1.6,0,2.87-1.31,2.87-2.83v-42.08h-94.24c7.3-69.7,43.7-116.06,94.24-146.91v-22.97l-9.15,5.57
						c-47.35,28.5-78.9,66.99-94.6,114.65c-8.51-39.02-23.46-73.95-43.3-104.57c48.98-59.31,113.08-93.99,147.05-109.47v-20.07
						H1264.91z M1325.98,405.05h222.24c-42.49,23.62-83.08,54.75-115.66,93.28C1403.81,459.62,1367.04,428.49,1325.98,405.05
						 M1367.93,622.09c-14.29-45.3-42.95-82.55-85.88-111.28V405.05c59.61,25.24,106.12,62.15,138.73,108.07
						c3.95,5.73,7.77,11.41,11.36,17.33c24.55,40.6,38.89,87.33,42.54,138.75h-97.04C1374.82,640.24,1367.93,622.09,1367.93,622.09"
						/>
				</defs>
				<clipPath id="SVGID_00000060020389295446981170000004587239500461500328_">
					<use xlink:href="#SVGID_00000069377027610983889280000010483124737593901739_"  style="overflow:visible;"/>
				</clipPath>
				<g style="clip-path:url(#SVGID_00000060020389295446981170000004587239500461500328_);">
					
						<linearGradient id="SVGID_00000094613765415065813500000008402071024543602822_" gradientUnits="userSpaceOnUse" x1="458.9166" y1="1039.7794" x2="459.6736" y2="1039.7794" gradientTransform="matrix(499.0023 0 0 499.0023 -227787.125 -518302.5)">
						<stop  offset="0" style="stop-color:#B9B9B8"/>
						<stop  offset="0.0625" style="stop-color:#B9B9B8"/>
						<stop  offset="0.0938" style="stop-color:#B9B9B8"/>
						<stop  offset="0.1016" style="stop-color:#B9B9B8"/>
						<stop  offset="0.1055" style="stop-color:#BABAB9"/>
						<stop  offset="0.1094" style="stop-color:#BBBBBA"/>
						<stop  offset="0.1133" style="stop-color:#BBBBBA"/>
						<stop  offset="0.1172" style="stop-color:#BCBCBB"/>
						<stop  offset="0.1211" style="stop-color:#BDBDBC"/>
						<stop  offset="0.125" style="stop-color:#BEBEBD"/>
						<stop  offset="0.1289" style="stop-color:#BEBEBD"/>
						<stop  offset="0.1328" style="stop-color:#BFBFBE"/>
						<stop  offset="0.1367" style="stop-color:#C0C0BF"/>
						<stop  offset="0.1406" style="stop-color:#C0C0BF"/>
						<stop  offset="0.1445" style="stop-color:#C1C1C0"/>
						<stop  offset="0.1484" style="stop-color:#C2C2C1"/>
						<stop  offset="0.1523" style="stop-color:#C2C2C2"/>
						<stop  offset="0.1562" style="stop-color:#C3C3C2"/>
						<stop  offset="0.1602" style="stop-color:#C4C4C3"/>
						<stop  offset="0.1641" style="stop-color:#C4C4C4"/>
						<stop  offset="0.168" style="stop-color:#C5C5C4"/>
						<stop  offset="0.1719" style="stop-color:#C6C6C5"/>
						<stop  offset="0.1758" style="stop-color:#C6C6C6"/>
						<stop  offset="0.1797" style="stop-color:#C7C7C6"/>
						<stop  offset="0.1836" style="stop-color:#C8C8C7"/>
						<stop  offset="0.1875" style="stop-color:#C8C8C8"/>
						<stop  offset="0.1914" style="stop-color:#C9C9C8"/>
						<stop  offset="0.1953" style="stop-color:#CACAC9"/>
						<stop  offset="0.1992" style="stop-color:#CACAC9"/>
						<stop  offset="0.2031" style="stop-color:#CBCBCA"/>
						<stop  offset="0.207" style="stop-color:#CBCBCB"/>
						<stop  offset="0.2109" style="stop-color:#CCCCCB"/>
						<stop  offset="0.2148" style="stop-color:#CDCDCC"/>
						<stop  offset="0.2188" style="stop-color:#CDCDCC"/>
						<stop  offset="0.2227" style="stop-color:#CECECD"/>
						<stop  offset="0.2266" style="stop-color:#CECECE"/>
						<stop  offset="0.2305" style="stop-color:#CFCFCE"/>
						<stop  offset="0.2344" style="stop-color:#CFCFCF"/>
						<stop  offset="0.2383" style="stop-color:#D0D0CF"/>
						<stop  offset="0.2422" style="stop-color:#D1D1D0"/>
						<stop  offset="0.2461" style="stop-color:#D1D1D1"/>
						<stop  offset="0.25" style="stop-color:#D2D2D1"/>
						<stop  offset="0.2539" style="stop-color:#D2D2D2"/>
						<stop  offset="0.2578" style="stop-color:#D3D3D2"/>
						<stop  offset="0.2617" style="stop-color:#D3D3D3"/>
						<stop  offset="0.2656" style="stop-color:#D4D4D3"/>
						<stop  offset="0.2695" style="stop-color:#D4D4D4"/>
						<stop  offset="0.2734" style="stop-color:#D5D5D4"/>
						<stop  offset="0.2773" style="stop-color:#D5D5D5"/>
						<stop  offset="0.2812" style="stop-color:#D6D6D5"/>
						<stop  offset="0.2852" style="stop-color:#D6D6D6"/>
						<stop  offset="0.2891" style="stop-color:#D7D7D6"/>
						<stop  offset="0.293" style="stop-color:#D7D7D7"/>
						<stop  offset="0.2969" style="stop-color:#D8D8D7"/>
						<stop  offset="0.3047" style="stop-color:#D8D8D8"/>
						<stop  offset="0.3125" style="stop-color:#D9D9D9"/>
						<stop  offset="0.3203" style="stop-color:#DADADA"/>
						<stop  offset="0.3281" style="stop-color:#DBDBDB"/>
						<stop  offset="0.3359" style="stop-color:#DCDCDC"/>
						<stop  offset="0.3438" style="stop-color:#DDDDDD"/>
						<stop  offset="0.3516" style="stop-color:#DEDEDE"/>
						<stop  offset="0.3594" style="stop-color:#DFDFDE"/>
						<stop  offset="0.3672" style="stop-color:#E0E0DF"/>
						<stop  offset="0.375" style="stop-color:#E0E0E0"/>
						<stop  offset="0.3828" style="stop-color:#E1E1E1"/>
						<stop  offset="0.3906" style="stop-color:#E2E2E2"/>
						<stop  offset="0.3984" style="stop-color:#E3E3E2"/>
						<stop  offset="0.4062" style="stop-color:#E3E3E3"/>
						<stop  offset="0.4141" style="stop-color:#E4E4E4"/>
						<stop  offset="0.4219" style="stop-color:#E5E5E5"/>
						<stop  offset="0.4297" style="stop-color:#E5E5E5"/>
						<stop  offset="0.4375" style="stop-color:#E6E6E6"/>
						<stop  offset="0.4453" style="stop-color:#E7E7E7"/>
						<stop  offset="0.4531" style="stop-color:#E7E7E7"/>
						<stop  offset="0.4609" style="stop-color:#E8E8E8"/>
						<stop  offset="0.4688" style="stop-color:#E9E9E8"/>
						<stop  offset="0.4766" style="stop-color:#E9E9E9"/>
						<stop  offset="0.4844" style="stop-color:#EAEAEA"/>
						<stop  offset="0.4922" style="stop-color:#EAEAEA"/>
						<stop  offset="0.5" style="stop-color:#EBEBEB"/>
						<stop  offset="0.5156" style="stop-color:#EBEBEB"/>
						<stop  offset="0.5312" style="stop-color:#ECECEC"/>
						<stop  offset="0.5469" style="stop-color:#EDEDED"/>
						<stop  offset="0.5625" style="stop-color:#EEEEEE"/>
						<stop  offset="0.5781" style="stop-color:#EEEEEE"/>
						<stop  offset="0.5938" style="stop-color:#EFEFEF"/>
						<stop  offset="0.625" style="stop-color:#F0F0F0"/>
						<stop  offset="0.6875" style="stop-color:#F1F1F1"/>
						<stop  offset="0.7031" style="stop-color:#F1F1F1"/>
						<stop  offset="0.707" style="stop-color:#F0F0F0"/>
						<stop  offset="0.7109" style="stop-color:#EFEFEF"/>
						<stop  offset="0.7148" style="stop-color:#EEEEEE"/>
						<stop  offset="0.7188" style="stop-color:#EDEDED"/>
						<stop  offset="0.7227" style="stop-color:#ECECEC"/>
						<stop  offset="0.7266" style="stop-color:#EBEBEB"/>
						<stop  offset="0.7305" style="stop-color:#EBEBEA"/>
						<stop  offset="0.7344" style="stop-color:#EAEAE9"/>
						<stop  offset="0.7383" style="stop-color:#E9E9E9"/>
						<stop  offset="0.7422" style="stop-color:#E8E8E8"/>
						<stop  offset="0.7461" style="stop-color:#E7E7E7"/>
						<stop  offset="0.75" style="stop-color:#E6E6E6"/>
						<stop  offset="0.7539" style="stop-color:#E5E5E5"/>
						<stop  offset="0.7578" style="stop-color:#E4E4E4"/>
						<stop  offset="0.7617" style="stop-color:#E3E3E3"/>
						<stop  offset="0.7656" style="stop-color:#E3E3E2"/>
						<stop  offset="0.7695" style="stop-color:#E2E2E1"/>
						<stop  offset="0.7734" style="stop-color:#E1E1E1"/>
						<stop  offset="0.7773" style="stop-color:#E0E0E0"/>
						<stop  offset="0.7812" style="stop-color:#DFDFDF"/>
						<stop  offset="0.7852" style="stop-color:#DEDEDE"/>
						<stop  offset="0.7891" style="stop-color:#DDDDDD"/>
						<stop  offset="0.793" style="stop-color:#DCDCDC"/>
						<stop  offset="0.7969" style="stop-color:#DCDCDB"/>
						<stop  offset="0.8008" style="stop-color:#DBDBDA"/>
						<stop  offset="0.8047" style="stop-color:#DADAD9"/>
						<stop  offset="0.8086" style="stop-color:#D9D9D8"/>
						<stop  offset="0.8125" style="stop-color:#D8D8D8"/>
						<stop  offset="0.8164" style="stop-color:#D7D7D7"/>
						<stop  offset="0.8203" style="stop-color:#D6D6D6"/>
						<stop  offset="0.8242" style="stop-color:#D5D5D5"/>
						<stop  offset="0.8281" style="stop-color:#D5D5D4"/>
						<stop  offset="0.832" style="stop-color:#D4D4D3"/>
						<stop  offset="0.8359" style="stop-color:#D3D3D2"/>
						<stop  offset="0.8398" style="stop-color:#D2D2D1"/>
						<stop  offset="0.8438" style="stop-color:#D1D1D0"/>
						<stop  offset="0.8477" style="stop-color:#D0D0D0"/>
						<stop  offset="0.8516" style="stop-color:#CFCFCF"/>
						<stop  offset="0.8555" style="stop-color:#CECECE"/>
						<stop  offset="0.8594" style="stop-color:#CECECD"/>
						<stop  offset="0.8633" style="stop-color:#CDCDCC"/>
						<stop  offset="0.8672" style="stop-color:#CCCCCB"/>
						<stop  offset="0.8711" style="stop-color:#CBCBCA"/>
						<stop  offset="0.875" style="stop-color:#CACAC9"/>
						<stop  offset="0.8789" style="stop-color:#C9C9C8"/>
						<stop  offset="0.8828" style="stop-color:#C8C8C8"/>
						<stop  offset="0.8867" style="stop-color:#C7C7C7"/>
						<stop  offset="0.8906" style="stop-color:#C7C7C6"/>
						<stop  offset="0.8945" style="stop-color:#C6C6C5"/>
						<stop  offset="0.8984" style="stop-color:#C5C5C4"/>
						<stop  offset="0.9023" style="stop-color:#C4C4C3"/>
						<stop  offset="0.9062" style="stop-color:#C3C3C2"/>
						<stop  offset="0.9102" style="stop-color:#C2C2C1"/>
						<stop  offset="0.9141" style="stop-color:#C1C1C1"/>
						<stop  offset="0.918" style="stop-color:#C0C0C0"/>
						<stop  offset="0.9219" style="stop-color:#C0C0BF"/>
						<stop  offset="0.9258" style="stop-color:#BFBFBE"/>
						<stop  offset="0.9297" style="stop-color:#BEBEBD"/>
						<stop  offset="0.9336" style="stop-color:#BDBDBC"/>
						<stop  offset="0.9375" style="stop-color:#BCBCBB"/>
						<stop  offset="0.9414" style="stop-color:#BBBBBA"/>
						<stop  offset="0.9453" style="stop-color:#BBBBBA"/>
						<stop  offset="0.9492" style="stop-color:#BABAB9"/>
						<stop  offset="0.9531" style="stop-color:#B9B9B8"/>
						<stop  offset="0.9688" style="stop-color:#B9B9B8"/>
						<stop  offset="1" style="stop-color:#B9B9B8"/>
					</linearGradient>
					<path style="fill:url(#SVGID_00000094613765415065813500000008402071024543602822_);" d="M1213.29,714.1V385.44h377.75V714.1
						H1213.29z"/>
				</g>
			</g>
		</g>
	</g>
</g>
</svg>
